{"glyphs":{"0":{"ha":1254,"x_min":0,"x_max":0,"o":"m 615 1110 l 668 1110 b 869 1047 740 1110 808 1089 b 971 940 910 1019 943 983 l 1058 990 b 928 1115 1024 1040 979 1083 b 676 1188 853 1163 765 1188 l 607 1188 b 356 1115 518 1188 431 1163 b 296 1071 335 1103 315 1088 l 453 1071 b 615 1110 504 1096 558 1110 z m 811 226 b 642 164 768 189 707 167 b 472 226 576 167 515 189 b 388 403 421 272 388 340 l 388 493 l 263 490 b 371 214 264 383 303 283 b 383 201 375 210 379 206 b 642 107 450 139 542 106 b 646 107 643 107 644 107 b 900 201 744 107 835 140 b 913 214 904 206 908 210 b 1022 500 982 285 1022 389 l 1022 501 l 896 501 l 896 403 b 811 226 896 340 863 272 z m 303 167 l 393 167 b 371 186 386 174 378 179 b 357 200 365 192 361 196 b 242 500 283 275 242 385 l 242 510 l 388 513 l 388 631 l 269 631 l 269 578 l 156 578 l 156 631 l 140 631 l 140 481 b 215 221 140 386 167 296 l 303 221 l 303 167 z m 1022 511 l 1022 686 l 896 686 l 896 511 l 1022 511 z m 646 1015 l 642 1015 l 639 1015 b 639 1015 639 1015 639 1015 b 438 900 553 1015 478 969 b 576 944 476 928 525 944 b 581 944 578 944 579 944 b 585 944 582 944 583 944 b 711 908 632 944 674 931 b 735 892 719 903 726 897 b 756 872 742 886 749 879 b 756 872 756 872 756 872 b 757 871 756 872 756 872 b 774 853 763 865 768 858 b 775 849 774 851 775 850 b 779 843 776 847 778 846 b 790 828 783 839 788 833 b 790 826 790 828 790 826 b 804 801 796 819 800 811 b 806 799 804 801 804 800 b 813 778 808 792 811 785 b 815 769 814 775 814 772 b 819 750 817 764 818 757 b 821 743 821 747 821 744 b 824 715 822 733 824 724 b 825 715 824 715 825 715 b 825 322 825 715 825 322 b 824 322 825 322 824 322 b 822 299 824 314 824 307 b 821 286 822 294 821 290 b 819 281 819 283 819 282 b 818 276 819 279 819 278 b 818 276 818 276 818 276 b 813 254 817 268 814 261 b 875 403 851 296 875 351 l 875 796 b 646 1015 869 918 769 1015 z m 165 588 l 260 588 l 260 640 l 388 640 l 388 796 b 638 1035 394 929 503 1035 l 643 1035 l 646 1035 b 896 796 779 1035 889 929 l 896 706 l 1042 706 l 1042 500 b 1010 333 1042 442 1031 385 l 1100 333 l 1100 281 b 1143 481 1128 343 1143 411 l 1143 714 b 1068 974 1143 808 1117 899 l 964 914 l 960 922 b 858 1031 932 967 899 1003 b 668 1090 801 1071 736 1090 l 615 1090 b 425 1031 547 1090 482 1071 b 261 696 325 961 261 833 l 261 686 l 140 686 l 140 640 l 165 640 l 165 588 z m 647 -10 b 636 -10 643 -10 640 -10 b 289 108 501 -10 378 32 b 269 125 282 114 276 119 b 121 481 175 214 121 343 l 121 714 b 172 936 121 793 139 868 b 171 935 171 936 171 936 b 171 935 171 935 171 935 b 171 935 171 935 171 935 b 124 860 153 911 136 886 b 124 860 124 860 124 860 b 114 839 119 853 117 846 b 104 817 110 832 107 824 b 104 817 104 817 104 817 b 104 815 104 817 104 817 l 104 815 b 90 775 99 803 94 789 b 90 775 90 775 90 775 b 78 726 85 760 81 743 b 78 726 78 726 78 726 b 72 686 75 713 74 700 b 72 686 72 686 72 686 b 71 676 72 682 72 679 b 71 676 71 676 71 676 b 69 633 71 663 69 647 b 69 633 69 633 69 633 l 69 633 l 69 400 l 69 400 b 215 51 69 269 119 140 b 233 35 221 46 228 40 b 581 -81 331 -47 456 -82 b 928 35 706 -82 831 -47 b 946 51 933 40 940 46 b 999 111 965 69 983 90 b 994 108 997 110 996 110 b 647 -10 906 32 782 -10 z m 1090 261 l 1090 324 l 1006 324 b 926 200 988 276 960 235 b 913 186 922 196 918 192 b 646 88 844 122 749 88 b 638 88 643 88 640 88 b 407 157 551 88 471 113 l 293 157 l 293 211 l 222 211 b 283 139 240 185 260 160 b 301 122 289 133 294 128 b 642 10 389 49 508 8 b 647 10 643 10 646 10 b 982 122 776 10 896 50 b 1000 139 989 128 994 133 b 1090 261 1038 174 1068 215 z m 414 1047 b 435 1061 421 1051 428 1057 l 285 1061 b 140 714 194 974 140 847 l 140 706 l 242 706 b 414 1047 246 846 311 976 z "},"1":{"ha":724,"x_min":0,"x_max":0,"o":"m 428 115 l 528 115 l 528 188 l 610 188 l 610 393 l 468 393 l 468 1093 l 140 1093 l 140 1033 l 356 1033 l 356 188 l 428 188 l 428 115 z m 336 1014 l 121 1014 l 121 1183 l 69 1115 l 69 943 l 285 943 l 285 -81 l 558 -81 l 613 -10 l 336 -10 l 336 1014 z m 488 413 l 610 413 l 610 1186 l 140 1186 l 140 1113 l 488 1113 l 488 413 z m 538 178 l 538 106 l 418 106 l 418 178 l 356 178 l 356 10 l 610 10 l 610 178 l 538 178 z "},"2":{"ha":1261,"x_min":0,"x_max":0,"o":"m 997 910 l 1108 910 b 1015 1047 1086 961 1056 1007 b 994 1068 1008 1054 1001 1061 l 994 919 b 997 910 996 917 996 914 z m 264 860 l 264 1031 b 158 840 215 978 178 913 l 260 840 b 264 860 261 847 263 853 z m 1026 746 b 958 613 1028 694 1001 644 l 565 328 l 786 328 l 1039 508 b 1147 713 1106 556 1146 632 b 1113 900 1149 779 1136 842 l 1001 900 b 1026 746 1021 843 1026 785 z m 615 182 l 651 182 l 983 419 b 1054 496 1013 440 1036 465 b 1050 492 1053 494 1051 493 l 615 182 z m 964 106 l 964 33 l 574 33 l 574 106 l 140 106 b 140 97 140 103 140 100 l 140 10 l 1147 10 l 1147 106 l 964 106 z m 689 440 l 947 629 b 1007 746 985 657 1008 700 b 644 1107 1006 881 957 1107 b 350 994 513 1107 414 1069 b 271 722 274 904 268 782 l 394 722 l 394 783 b 644 1033 394 921 507 1033 b 893 783 782 1033 893 921 b 839 678 893 742 874 701 l 643 538 l 689 538 l 689 440 z m 583 43 l 954 43 l 954 115 l 1147 115 l 1147 163 l 554 163 l 758 308 l 506 308 l 660 421 l 478 421 l 208 228 b 142 115 171 201 146 160 l 583 115 l 583 43 z m 258 831 l 156 831 b 140 722 146 796 142 760 l 251 722 b 258 831 250 749 250 788 z m 679 433 l 679 528 l 629 528 l 492 431 l 674 431 l 679 433 z m 121 713 b 169 925 121 789 138 861 b 157 910 165 919 161 915 b 157 910 157 910 157 910 b 146 893 153 904 150 899 b 146 893 146 893 146 893 b 139 882 144 889 142 886 b 135 875 138 879 136 876 b 135 875 135 875 135 875 b 121 850 131 867 126 858 b 121 850 121 850 121 850 b 114 835 119 846 117 840 b 114 835 114 835 114 835 b 111 829 114 833 113 832 b 111 829 111 829 111 829 b 106 815 110 825 107 819 b 100 800 103 810 101 804 b 97 793 99 797 97 796 l 97 793 b 94 786 96 792 96 789 b 94 786 94 786 94 786 b 93 781 94 783 93 782 b 82 740 89 767 85 754 b 82 740 82 740 82 740 b 79 726 81 736 79 732 b 79 726 79 726 79 726 b 74 692 76 715 75 703 b 74 692 74 692 74 692 b 72 681 72 688 72 683 b 72 681 72 681 72 681 b 69 632 71 664 69 649 l 343 632 l 397 703 l 121 703 l 121 713 z m 874 783 b 644 1014 874 910 771 1014 b 446 899 560 1014 485 967 b 583 943 485 926 532 943 l 583 943 b 678 924 617 943 649 936 b 678 924 678 924 678 924 b 694 915 683 921 689 918 b 701 911 697 914 700 913 b 701 911 701 911 701 911 b 713 904 706 908 710 907 b 719 900 715 903 718 901 b 732 890 724 897 728 893 b 736 886 733 889 735 888 b 736 886 736 886 736 886 b 750 874 742 883 746 878 b 753 872 751 874 751 872 b 756 868 754 871 754 869 b 765 858 758 865 763 863 b 765 858 765 858 765 858 b 769 853 767 856 768 854 b 781 839 774 849 776 844 b 781 838 781 839 781 838 b 782 836 782 838 782 836 b 793 819 786 831 789 825 b 796 813 793 817 794 815 b 803 800 799 808 800 804 b 804 793 803 797 804 796 b 811 775 807 788 810 782 b 811 775 811 775 811 775 b 813 774 811 775 813 774 b 817 753 814 767 815 760 b 818 747 818 751 818 749 b 821 731 819 742 821 736 b 821 729 821 731 821 729 b 822 725 821 728 821 726 b 822 703 822 718 822 710 b 822 689 822 699 822 693 l 828 693 b 874 783 857 714 874 747 z m 121 97 b 139 176 121 125 128 151 b 69 17 85 115 69 63 l 69 17 l 69 -81 l 1096 -81 l 1150 -10 l 121 -10 l 121 97 z m 336 1007 b 644 1126 403 1086 507 1126 b 985 942 842 1126 938 1038 l 985 1076 b 685 1186 901 1147 796 1186 l 614 1186 b 274 1042 481 1186 360 1131 l 274 894 b 336 1007 286 933 306 972 z "},"3":{"ha":1233,"x_min":0,"x_max":0,"o":"m 626 89 l 626 163 b 389 392 501 168 399 267 l 267 392 b 343 201 274 332 293 260 b 626 89 404 129 500 92 z m 978 939 l 1086 939 b 975 1075 1061 990 1022 1038 l 975 944 b 978 939 975 943 976 940 z m 636 1126 b 965 964 818 1126 914 1051 l 965 1083 b 754 1178 906 1129 833 1161 b 668 1186 725 1183 696 1186 l 607 1186 b 211 974 443 1186 297 1103 l 303 974 b 636 1126 368 1075 479 1126 z m 806 638 l 882 638 l 882 658 l 969 658 b 1000 746 989 682 1000 714 b 636 1107 997 881 949 1107 b 317 958 485 1107 376 1057 l 314 954 l 199 954 b 158 863 182 925 168 894 l 214 863 l 214 915 l 378 915 l 378 863 l 400 863 b 638 1033 433 961 526 1033 b 901 804 806 1033 901 950 b 749 675 901 733 851 690 l 536 675 l 536 658 l 806 658 l 806 638 z m 947 636 b 960 649 951 640 956 644 l 892 649 l 892 628 l 796 628 l 796 649 l 536 649 l 536 607 l 803 607 b 947 636 849 607 907 607 z m 882 392 b 743 501 882 453 838 488 l 517 501 l 517 671 l 465 604 l 465 604 l 465 431 l 465 431 l 465 431 l 683 431 b 758 411 711 426 736 421 b 779 400 767 407 772 404 b 783 397 781 400 782 399 b 800 385 789 393 794 389 b 800 385 800 385 800 385 b 801 383 800 385 801 383 b 807 376 804 382 806 379 b 810 374 808 376 810 375 b 811 372 811 374 811 372 b 825 346 818 364 822 356 b 826 343 825 344 826 344 b 829 332 828 339 828 336 b 829 332 829 332 829 332 b 829 326 829 331 829 328 b 831 311 831 322 831 317 b 831 286 831 301 831 293 b 825 256 829 275 828 265 b 824 249 825 253 824 251 b 819 238 822 244 821 240 b 882 392 861 272 882 325 z m 368 906 l 224 906 l 224 851 l 154 851 b 142 804 150 836 146 821 l 389 804 b 397 851 390 821 393 836 l 368 851 l 368 906 z m 882 804 b 638 1014 882 939 796 1014 b 438 899 551 1014 478 967 b 576 943 476 926 525 943 b 678 929 614 943 647 938 b 689 926 682 929 685 928 b 697 924 692 925 694 924 b 706 919 700 922 703 921 b 708 919 707 919 707 919 b 717 915 711 918 714 917 b 724 911 719 914 722 913 b 726 911 725 911 726 911 b 740 903 732 908 736 906 b 740 903 740 903 740 903 b 749 897 744 901 746 899 b 757 890 751 894 754 893 b 765 885 760 889 763 888 b 772 878 767 883 769 881 b 776 874 774 876 775 875 b 778 872 778 874 778 872 b 790 858 782 868 786 864 b 793 854 792 857 792 856 b 801 843 796 850 799 846 b 803 839 801 842 803 840 b 804 836 804 838 804 836 b 811 824 807 832 808 828 b 814 818 811 822 813 819 b 821 799 817 811 818 806 b 821 797 821 799 821 797 b 821 796 821 797 821 796 b 825 778 824 790 825 785 b 826 776 826 778 826 778 b 826 771 826 775 826 774 b 829 754 828 765 829 760 b 831 747 829 753 829 750 b 831 724 831 740 831 732 b 831 719 831 722 831 721 b 882 804 865 739 882 767 z m 121 796 b 161 922 128 840 142 883 b 160 922 160 922 160 922 b 136 886 151 911 143 899 b 136 886 136 886 136 886 b 136 886 136 886 136 886 b 122 864 131 879 126 872 b 119 858 121 863 121 861 b 119 858 119 858 119 858 b 94 806 110 842 103 824 b 94 806 94 806 94 806 b 89 790 93 800 92 796 b 89 790 89 790 89 790 b 69 714 81 765 74 740 l 336 714 l 390 785 l 119 785 l 121 796 z m 757 94 l 757 135 l 847 139 l 853 143 b 1000 450 978 221 999 368 b 999 469 1000 456 999 463 l 872 469 b 901 392 892 449 901 422 b 689 165 901 261 825 182 l 689 94 l 757 94 z m 954 556 b 803 588 919 585 858 588 l 536 588 l 536 521 l 744 521 b 861 479 796 514 835 500 l 996 479 b 954 556 990 510 975 538 z m 850 129 l 767 125 l 767 85 l 679 85 l 679 165 b 646 163 668 164 657 163 l 646 69 l 636 69 b 328 189 499 69 394 110 b 246 392 274 251 253 329 l 142 392 b 607 10 185 169 379 10 l 668 10 b 754 18 696 10 725 13 b 896 68 804 28 853 46 l 850 129 z m 668 -10 l 607 -10 b 122 392 368 -10 167 158 l 69 321 b 546 -81 108 93 307 -81 b 607 -81 546 -81 607 -81 b 621 -81 611 -81 615 -81 b 696 -72 646 -79 671 -76 b 1000 115 813 -49 929 18 b 758 -1 933 58 850 17 b 668 -10 728 -7 697 -10 z m 1019 746 b 958 621 1019 697 996 649 b 908 597 943 610 925 603 b 965 571 929 592 950 583 b 1019 450 999 543 1019 497 b 872 132 1018 367 997 217 l 913 78 b 1089 263 992 124 1054 188 b 1121 422 1113 313 1124 369 b 1093 528 1119 461 1110 497 l 1093 528 b 1044 590 1081 551 1065 571 l 1038 597 l 1044 604 b 1093 667 1065 622 1081 644 b 1121 774 1110 699 1119 735 b 1092 929 1124 825 1113 879 l 982 929 b 1019 746 1011 861 1018 792 z "},"4":{"ha":1175,"x_min":0,"x_max":0,"o":"m 897 854 l 897 1186 l 833 1186 l 833 854 l 897 854 z m 440 672 l 643 939 l 643 522 l 328 522 l 433 663 l 346 663 l 228 506 l 228 413 l 763 413 l 763 1186 l 738 1186 l 353 672 l 440 672 z m 624 542 l 624 881 l 572 813 l 572 542 l 624 542 z m 554 329 l 554 289 l 338 289 l 338 329 l 140 329 l 140 268 l 643 268 l 643 10 l 763 10 l 763 329 l 554 329 z m 624 249 l 121 249 l 121 519 l 69 451 l 69 178 l 572 178 l 572 -81 l 846 -81 l 899 -10 l 624 -10 l 624 249 z m 347 299 l 544 299 l 544 339 l 763 339 l 763 393 l 208 393 l 208 513 l 211 515 l 713 1186 l 643 1186 l 635 1183 l 140 529 l 140 339 l 347 339 l 347 299 z m 824 393 l 782 393 l 782 10 l 897 10 l 897 121 l 824 121 l 824 393 z m 833 393 l 833 131 l 897 131 l 897 268 l 967 268 l 967 393 l 833 393 z m 917 178 l 1010 178 l 1064 249 l 917 249 l 917 178 z m 897 844 l 824 844 l 824 1186 l 782 1186 l 782 413 l 986 413 l 986 268 l 1061 268 l 1061 522 l 897 522 l 897 844 z m 643 522 l 643 939 l 440 672 l 433 663 l 328 522 l 643 522 z m 572 813 l 624 881 l 624 542 l 572 542 l 367 542 l 572 813 z "},"5":{"ha":1231,"x_min":0,"x_max":0,"o":"m 338 1132 l 1031 1132 l 1031 1186 l 307 1186 l 307 872 l 338 1132 z m 297 790 l 297 1186 l 229 1186 l 179 771 l 294 771 l 297 790 z m 178 761 l 149 521 l 265 521 l 293 761 l 178 761 z m 711 608 b 939 553 788 608 875 608 b 994 332 1013 488 1006 388 b 797 108 975 225 904 146 b 772 101 789 106 781 104 l 947 101 b 1086 263 1008 144 1057 200 b 1118 422 1110 313 1121 369 b 1090 528 1117 458 1107 496 b 976 638 1065 578 1025 617 b 676 675 885 681 778 678 l 654 675 l 532 675 l 524 608 l 711 608 z m 615 568 l 615 536 l 928 536 b 926 538 926 536 926 538 b 711 589 868 589 788 589 l 501 589 l 513 675 l 424 675 l 467 1033 l 533 1033 l 533 1078 l 682 1078 l 682 1056 l 846 1056 l 846 1078 l 1031 1078 l 1031 1113 l 356 1113 l 285 521 l 403 521 l 403 568 l 615 568 z m 725 92 b 661 88 704 89 682 88 b 597 92 640 88 618 89 l 508 92 l 508 19 b 604 10 539 13 571 10 l 664 10 b 751 18 693 10 722 13 b 933 92 818 32 879 57 l 725 92 z m 664 -10 l 604 -10 b 343 65 511 -10 421 15 b 122 418 221 140 140 269 l 69 349 b 286 -8 85 204 163 71 b 543 -81 361 -54 449 -81 b 603 -81 543 -81 603 -81 b 628 -81 611 -81 619 -81 b 692 -72 650 -79 671 -76 b 997 115 810 -49 925 18 b 756 -1 931 58 847 17 b 664 -10 725 -7 694 -10 z m 544 101 b 374 188 481 118 419 147 b 285 304 335 221 306 261 l 171 304 b 353 81 207 211 269 133 b 499 21 399 53 447 33 l 499 101 l 544 101 z m 300 318 b 386 203 319 275 349 235 b 792 128 488 113 658 82 b 976 336 892 163 957 236 b 938 526 985 383 990 468 l 606 526 l 606 557 l 413 557 l 413 521 l 740 521 b 899 392 847 506 899 463 b 635 163 899 246 803 163 b 385 401 500 163 392 267 l 385 419 l 142 419 b 164 324 146 386 153 354 l 297 324 l 300 318 z m 856 1046 l 672 1046 l 672 1068 l 543 1068 l 543 1033 l 1031 1033 l 1031 1068 l 856 1068 l 856 1046 z m 475 943 l 979 943 l 1032 1014 l 483 1014 l 475 943 z m 404 439 l 404 431 l 679 431 b 719 424 693 429 707 426 b 736 418 725 422 731 419 b 739 418 736 418 738 418 b 743 415 740 417 742 417 b 757 410 747 414 753 413 b 763 408 760 410 761 408 b 771 404 765 407 768 406 b 776 400 772 403 775 401 b 783 396 779 399 781 397 b 794 388 788 393 790 390 b 800 382 796 386 799 383 b 806 375 803 379 804 378 b 814 365 808 372 811 368 b 815 363 814 364 814 364 b 817 358 815 361 817 360 b 821 350 818 356 819 353 b 822 347 821 349 822 347 b 824 342 822 344 824 343 b 826 326 825 336 826 332 b 828 321 828 325 828 322 b 828 311 828 317 828 314 b 818 238 828 283 825 260 b 879 392 858 274 879 325 b 739 501 879 453 835 488 l 126 501 l 208 1181 l 160 1115 l 76 431 l 121 431 l 119 439 l 404 439 z "},"6":{"ha":1235,"x_min":0,"x_max":0,"o":"m 243 754 l 189 754 l 189 433 l 288 433 l 288 424 b 636 107 288 110 622 107 b 985 364 672 107 985 114 b 917 550 985 464 953 519 l 585 550 l 585 521 l 744 521 b 901 392 850 506 901 463 b 638 163 901 246 806 163 b 388 401 503 163 394 267 l 388 521 l 475 521 l 475 588 b 278 589 417 588 278 589 l 268 589 l 268 599 b 268 746 268 599 268 701 b 651 1126 269 860 310 1126 b 988 969 810 1126 924 1074 l 997 954 l 850 954 b 860 942 853 950 857 946 b 892 860 878 917 886 892 b 894 847 893 856 893 851 b 896 838 896 844 896 840 l 946 838 l 946 890 l 1081 890 l 1081 838 l 1118 838 b 844 1150 1097 972 994 1092 b 717 1182 803 1167 761 1176 b 636 1188 690 1186 663 1188 b 301 1074 507 1188 388 1147 b 283 1058 294 1069 289 1064 b 210 967 254 1032 229 1000 l 243 967 l 243 754 z m 179 764 l 232 764 l 232 957 l 204 957 b 140 717 163 886 140 803 l 140 482 b 143 433 140 467 142 450 l 179 433 l 179 764 z m 715 61 l 715 38 l 532 38 l 532 61 l 403 61 l 403 56 b 607 10 467 25 536 10 l 668 10 b 754 18 696 10 725 13 b 881 61 799 26 842 42 l 715 61 z m 1071 881 l 956 881 l 956 828 l 899 828 b 901 803 900 819 901 811 l 1121 803 b 1119 828 1121 811 1121 819 l 1071 828 l 1071 881 z m 542 71 l 542 47 l 706 47 l 706 71 l 900 71 b 1089 263 985 117 1053 183 b 1121 422 1113 313 1124 369 b 1093 528 1119 458 1110 496 b 981 638 1068 578 1028 617 b 711 676 897 676 803 678 l 711 607 l 828 607 b 1004 364 829 607 1004 601 b 636 88 1004 94 674 88 b 268 414 501 88 274 156 l 146 414 b 356 81 165 276 242 153 b 393 61 368 74 381 67 l 393 71 l 542 71 z m 651 1107 b 288 746 339 1107 290 881 b 288 608 288 710 288 635 b 485 607 324 608 443 607 l 494 607 l 494 521 l 575 521 l 575 560 l 904 560 b 826 588 867 586 831 588 l 690 588 l 690 676 b 679 675 688 676 683 676 l 657 675 l 388 675 l 388 794 b 472 971 388 857 421 925 b 689 1032 525 1017 608 1040 b 831 974 744 1026 793 1006 l 961 974 b 651 1107 900 1061 796 1107 z m 407 431 l 683 431 b 719 424 696 429 707 426 b 740 418 726 422 733 419 b 746 415 742 417 744 417 b 760 411 750 414 756 413 b 765 407 761 410 764 408 b 782 399 771 404 776 401 b 782 399 782 399 782 399 b 783 397 782 399 783 399 b 799 386 789 394 794 390 b 800 385 799 386 800 385 b 813 371 804 381 808 376 b 813 371 813 371 813 371 b 821 357 815 367 818 363 b 822 356 821 357 821 356 b 824 353 822 354 822 353 b 826 340 825 349 825 344 b 828 335 828 339 828 336 b 829 332 829 333 829 332 b 829 332 829 332 829 332 b 831 311 831 325 831 318 b 831 285 831 301 831 293 b 829 281 829 283 829 282 b 829 275 829 279 829 276 b 826 261 828 271 828 265 b 824 249 826 257 825 253 b 822 240 824 246 822 243 b 821 238 821 239 821 239 b 882 392 861 274 882 325 b 743 501 882 453 838 488 l 407 501 l 407 431 z m 882 794 b 875 843 883 808 879 826 b 872 856 875 847 874 851 b 844 931 867 885 860 908 b 686 1013 810 976 754 1006 b 486 957 611 1021 535 999 b 438 899 467 939 450 919 b 706 921 511 949 621 957 b 731 908 714 917 722 913 b 731 908 731 908 731 908 b 736 904 732 907 735 906 b 751 894 742 901 746 899 b 753 893 751 894 753 893 b 764 883 757 890 761 888 b 769 878 767 882 768 881 b 774 875 771 878 772 876 b 790 856 779 869 785 863 b 821 778 808 832 815 806 b 831 713 825 758 832 733 l 1071 713 l 1124 783 l 881 783 l 882 794 z m 668 -10 l 607 -10 b 346 65 514 -10 424 15 b 121 482 207 151 121 311 l 121 717 b 169 933 121 793 138 868 b 142 894 160 921 150 908 b 142 894 142 894 142 894 b 132 876 138 889 135 882 b 111 835 124 864 118 850 b 103 817 108 829 106 824 b 103 817 103 817 103 817 b 101 811 103 815 101 814 b 101 811 101 811 101 811 b 93 785 99 803 96 794 b 78 724 86 765 81 744 b 78 724 78 724 78 724 b 72 688 75 711 74 700 b 71 679 72 685 72 682 l 71 679 b 69 635 69 665 69 650 l 69 401 b 71 371 69 392 69 382 b 71 371 71 371 71 371 b 72 357 71 367 71 363 b 74 342 72 353 72 347 b 74 342 74 342 74 342 b 78 313 74 332 75 322 b 79 307 78 311 78 308 b 83 285 81 299 82 292 b 83 282 83 285 83 283 l 83 282 b 290 -8 113 164 185 58 b 546 -81 364 -54 451 -81 b 546 -81 546 -81 546 -81 b 607 -81 551 -81 607 -81 b 607 -81 607 -81 607 -81 b 629 -81 614 -81 622 -81 b 631 -81 631 -81 631 -81 b 632 -81 631 -81 631 -81 b 632 -81 632 -81 632 -81 b 696 -72 653 -79 674 -76 b 1000 115 813 -49 929 18 b 758 -1 933 58 850 17 b 668 -10 728 -7 697 -10 z "},"7":{"ha":1032,"x_min":0,"x_max":0,"o":"m 688 567 l 688 776 l 807 776 l 921 1186 l 793 1186 l 621 567 l 688 567 z m 583 1131 l 583 1186 l 140 1186 l 140 1033 l 163 1033 l 163 1131 l 583 1131 z m 742 1075 l 772 1186 l 603 1186 l 603 1111 l 182 1111 l 182 1033 l 242 1033 l 242 1075 l 742 1075 z m 403 110 l 403 272 l 329 10 l 444 10 l 474 110 l 403 110 z m 475 119 l 739 1065 l 251 1065 l 251 1033 l 614 1033 l 413 307 l 413 119 l 475 119 z m 697 767 l 697 557 l 618 557 l 465 10 l 593 10 l 804 767 l 697 767 z m 589 1014 l 121 1014 l 121 1183 l 69 1115 l 69 943 l 540 943 l 256 -81 l 540 -81 l 593 -10 l 304 -10 l 589 1014 z "},"8":{"ha":1185,"x_min":0,"x_max":0,"o":"m 957 586 b 996 639 974 603 986 621 b 936 599 978 624 958 611 b 957 586 943 594 950 590 z m 765 776 b 764 757 765 769 764 764 b 811 857 793 785 811 819 b 604 1015 811 944 718 1015 b 406 901 511 1015 432 967 b 549 943 444 928 494 943 b 765 776 668 943 765 868 z m 964 108 b 797 17 917 68 860 38 b 617 -10 740 -1 679 -10 b 611 -10 614 -10 613 -10 b 424 17 544 -11 482 -1 b 257 108 361 38 304 68 b 239 125 251 114 244 119 b 144 250 201 160 169 203 b 125 428 115 306 110 369 b 128 435 126 431 126 433 b 79 344 103 406 88 375 b 97 174 63 288 71 226 b 190 50 121 128 151 86 b 208 35 196 44 201 39 b 554 -82 304 -47 429 -82 b 901 35 679 -82 806 -47 b 919 50 908 39 914 44 b 985 126 944 74 965 99 b 985 128 985 126 985 126 b 982 125 983 126 983 125 b 964 108 976 119 969 114 z m 138 735 b 133 918 113 793 111 858 b 99 861 119 900 108 881 b 90 658 65 797 63 724 b 193 542 108 617 140 576 b 271 599 215 563 242 582 b 138 735 207 633 163 679 z m 765 260 b 764 240 765 253 764 247 b 811 342 793 268 811 303 b 604 499 811 428 718 499 b 406 386 511 499 432 451 b 549 426 444 411 494 426 b 765 260 668 426 765 351 z m 915 599 b 950 579 928 593 939 586 b 1007 663 976 606 996 635 b 915 599 983 639 954 618 z m 457 1078 l 751 1078 b 604 1106 707 1096 656 1106 b 457 1078 551 1106 501 1096 z m 849 1021 l 846 1024 b 779 1065 826 1040 804 1054 l 429 1065 b 281 857 340 1022 281 944 b 604 610 281 721 426 610 l 604 608 b 846 531 696 608 782 581 b 932 422 886 500 915 463 l 932 514 l 1014 514 b 911 590 989 542 956 568 l 893 599 l 911 607 b 1071 811 1022 663 1063 740 l 1021 811 l 1021 865 l 908 865 l 908 757 l 792 757 b 764 732 783 749 774 739 b 604 681 721 699 664 681 b 446 732 544 681 488 699 b 378 857 401 765 378 810 b 446 983 378 906 401 950 b 604 1035 488 1017 544 1035 b 764 983 664 1035 721 1017 b 831 857 807 950 831 906 b 801 769 831 826 821 796 l 896 769 l 896 878 l 1033 878 l 1033 824 l 1072 824 b 1068 897 1074 850 1072 874 b 1035 979 1063 926 1051 953 b 1004 1021 1025 993 1015 1007 l 849 1021 z m 594 93 l 604 93 b 928 342 783 93 928 204 b 604 589 928 478 783 589 b 281 350 429 589 288 483 l 281 350 l 281 333 l 139 333 b 158 265 142 310 149 288 l 400 265 b 378 342 386 289 378 314 b 446 467 378 389 401 433 b 604 518 488 500 544 518 b 764 467 664 518 721 500 b 831 342 807 433 831 389 b 764 215 831 293 807 249 b 604 164 721 182 664 164 b 446 215 544 164 488 182 b 407 253 431 226 418 239 l 165 253 b 253 139 188 210 217 171 b 269 124 258 133 264 128 b 594 10 354 51 469 11 l 594 93 z m 944 501 l 944 379 b 947 342 946 367 947 354 b 846 151 947 269 911 201 b 614 74 783 103 701 75 l 614 10 b 617 10 615 10 615 10 b 951 124 746 10 865 50 b 969 139 957 128 963 133 b 1032 214 993 161 1014 186 b 1067 297 1050 239 1061 267 b 1024 501 1079 358 1076 435 l 944 501 z m 144 424 b 136 350 138 399 135 375 l 261 350 b 363 531 264 418 300 482 b 514 599 406 564 457 588 b 363 667 457 611 406 635 b 261 857 297 718 261 785 b 363 1047 261 929 297 997 b 604 1125 428 1097 513 1125 b 856 1040 699 1125 790 1094 l 988 1040 b 896 1115 960 1069 931 1094 b 646 1188 821 1163 735 1188 l 575 1188 b 325 1115 486 1188 400 1163 b 163 938 257 1074 200 1011 b 156 743 131 876 128 806 b 297 607 181 688 228 642 l 314 599 l 297 590 b 144 424 215 550 164 493 z m 957 586 b 996 639 974 603 986 621 b 936 599 978 624 958 611 b 957 586 943 594 950 590 z m 765 776 b 764 757 765 769 764 764 b 811 857 793 785 811 819 b 604 1015 811 944 718 1015 b 406 901 511 1015 432 967 b 549 943 444 928 494 943 b 765 776 668 943 765 868 z m 964 108 b 797 17 917 68 860 38 b 617 -10 740 -1 679 -10 b 611 -10 614 -10 613 -10 b 424 17 544 -11 482 -1 b 257 108 361 38 304 68 b 239 125 251 114 244 119 b 144 250 201 160 169 203 b 125 428 115 306 110 369 b 128 435 126 431 126 433 b 79 344 103 406 88 375 b 97 174 63 288 71 226 b 190 50 121 128 151 86 b 208 35 196 44 201 39 b 554 -82 304 -47 429 -82 b 901 35 679 -82 806 -47 b 919 50 908 39 914 44 b 985 126 944 74 965 99 b 985 128 985 126 985 126 b 982 125 983 126 983 125 b 964 108 976 119 969 114 z m 138 735 b 133 918 113 793 111 858 b 99 861 119 900 108 881 b 90 658 65 797 63 724 b 193 542 108 617 140 576 b 271 599 215 563 242 582 b 138 735 207 633 163 679 z m 765 260 b 764 240 765 253 764 247 b 811 342 793 268 811 303 b 604 499 811 428 718 499 b 406 386 511 499 432 451 b 549 426 444 411 494 426 b 765 260 668 426 765 351 z "},"9":{"ha":1235,"x_min":0,"x_max":0,"o":"m 875 1135 b 657 1188 807 1169 733 1188 l 643 1188 l 643 1135 z m 1110 368 l 976 368 b 601 71 956 242 875 71 b 265 228 442 71 329 124 l 256 243 l 415 243 b 414 243 415 243 415 243 b 374 325 393 268 382 296 l 153 325 b 419 47 185 204 282 100 b 546 15 461 31 503 19 b 963 124 706 -6 857 35 b 981 139 968 128 975 133 b 1110 368 1044 199 1089 279 z m 626 -10 b 544 -4 600 -10 572 -8 b 413 28 499 1 456 13 b 122 392 243 94 131 236 l 71 324 b 72 292 71 313 72 301 b 85 231 75 271 79 250 b 94 203 88 221 92 211 b 107 176 99 193 103 185 b 111 168 108 174 110 171 b 119 151 114 163 117 157 b 126 142 122 147 124 144 b 136 126 129 136 132 132 b 142 117 138 124 140 121 b 153 103 146 113 149 108 b 160 94 156 100 157 97 b 172 81 164 90 168 85 b 179 72 175 78 176 75 b 193 58 183 68 189 64 b 200 53 196 57 197 54 b 222 33 207 46 214 40 b 247 15 231 28 239 21 b 299 -18 264 3 281 -8 b 356 -43 317 -28 336 -36 b 386 -54 365 -47 376 -51 b 451 -71 407 -61 429 -67 b 483 -76 463 -72 474 -75 b 908 35 633 -94 792 -64 b 926 51 914 40 919 46 b 979 111 946 69 964 90 b 975 108 978 111 976 110 b 626 -10 885 32 761 -10 z m 364 378 b 363 394 364 385 363 390 l 142 394 b 150 335 143 374 146 354 l 372 335 b 364 378 369 349 367 364 z m 792 129 l 608 129 l 608 157 l 507 157 l 507 129 l 406 129 b 601 90 460 104 525 90 b 792 129 681 90 743 106 z m 386 139 l 497 139 l 497 167 l 563 167 b 536 172 554 168 546 169 b 435 224 497 182 463 200 l 292 224 b 386 139 317 189 349 160 z m 856 403 l 856 503 l 585 501 b 275 542 481 500 372 497 b 153 660 224 564 181 607 b 122 775 135 696 125 735 b 154 936 119 828 131 885 b 146 925 151 932 147 928 b 140 918 143 922 142 921 b 140 918 140 918 140 918 b 136 911 139 917 138 914 l 136 911 b 132 906 135 910 133 907 b 118 885 126 899 122 892 b 118 885 118 885 118 885 b 104 857 114 876 108 867 b 71 694 81 808 68 750 b 101 583 74 656 83 618 b 218 469 126 535 167 493 b 242 460 226 465 233 463 b 242 460 242 460 242 460 b 242 460 242 460 242 460 b 249 457 244 460 246 458 b 267 451 254 456 261 453 b 274 450 268 451 271 450 l 274 450 b 274 450 274 450 274 450 b 297 443 281 447 289 446 b 299 443 297 443 299 443 b 322 439 307 442 314 440 b 329 438 325 439 326 439 b 329 438 329 438 329 438 b 329 438 329 438 329 438 b 350 435 336 438 343 436 b 350 435 350 435 350 435 b 350 435 350 435 350 435 b 354 435 351 435 353 435 b 407 431 372 433 389 432 b 411 431 408 431 410 431 b 411 431 411 431 411 431 b 411 431 411 431 411 431 b 436 431 419 431 428 431 b 438 431 438 431 438 431 b 438 431 438 431 438 431 l 438 431 b 544 432 474 429 510 431 l 804 432 b 804 322 804 432 804 322 b 803 299 804 314 804 307 b 800 286 803 294 801 290 b 800 281 800 285 800 282 b 799 276 799 279 799 278 b 792 254 797 269 794 263 b 856 403 832 296 856 351 z m 626 1015 b 401 904 513 1015 436 976 b 565 944 444 931 500 944 b 650 929 594 944 624 939 b 665 922 654 926 660 925 b 667 921 665 922 665 922 b 721 886 686 913 704 900 b 721 886 721 886 721 886 b 725 883 722 885 724 883 b 728 881 726 882 726 881 b 735 874 731 878 732 876 b 739 869 736 872 738 871 b 739 869 739 869 739 869 b 754 851 744 864 750 857 b 754 851 754 851 754 851 b 758 846 756 850 757 847 b 764 838 761 843 763 840 b 769 829 767 835 768 832 b 771 826 771 828 771 828 b 775 821 772 825 774 822 b 781 810 776 817 778 814 b 782 807 781 810 781 808 b 783 803 782 806 783 804 b 790 785 786 797 789 790 b 793 779 792 783 792 781 b 797 764 794 775 796 769 b 799 758 797 763 799 760 b 799 757 799 758 799 758 b 801 743 800 753 801 747 b 803 736 801 740 803 739 b 804 715 804 729 804 722 l 804 696 l 856 696 l 856 796 b 626 1015 850 918 750 1015 z m 810 139 b 964 451 938 213 964 356 b 964 589 965 488 965 563 b 664 590 918 589 724 589 l 664 522 l 875 522 l 875 403 b 790 226 875 340 843 272 b 618 164 746 188 683 165 l 618 139 z m 654 610 b 974 608 703 610 974 608 l 983 608 l 985 599 b 985 451 985 599 985 496 b 978 378 983 431 982 406 l 1113 378 b 1124 481 1119 411 1124 446 l 1124 715 b 1124 718 1124 715 1124 717 l 1106 718 l 1106 665 l 940 665 l 940 718 l 875 718 l 875 676 l 519 676 b 497 679 511 676 504 678 l 497 590 l 425 590 b 300 649 422 590 351 592 b 249 835 260 692 243 754 b 617 1110 264 1036 449 1110 b 899 1019 746 1111 838 1082 b 985 774 956 964 985 881 l 985 764 l 875 763 l 875 728 l 950 728 l 950 675 l 1096 675 l 1096 728 l 1122 728 b 907 1115 1118 888 1038 1035 b 892 1125 903 1119 897 1122 l 633 1125 l 633 1178 l 507 1178 b 174 933 358 1149 231 1054 b 142 775 151 885 139 828 b 171 668 144 739 154 701 b 283 558 196 619 236 581 b 585 521 376 517 482 519 l 606 522 l 644 522 l 644 610 z m 886 1006 b 617 1090 828 1064 740 1090 b 268 833 539 1090 286 1071 b 314 663 263 758 278 701 b 426 610 360 611 425 610 l 478 610 l 478 685 b 361 806 400 704 361 744 b 626 1035 361 951 458 1035 b 875 796 760 1035 869 929 l 875 782 l 965 783 b 886 1006 963 881 936 956 z "},"\u0000":{"ha":0,"x_min":0,"x_max":0,"o":""},"\r":{"ha":865,"x_min":0,"x_max":0,"o":""}," ":{"ha":865,"x_min":0,"x_max":0,"o":""},"&":{"ha":1407,"x_min":0,"x_max":0,"o":"m 657 167 l 665 161 b 794 185 715 163 758 169 l 375 463 b 353 429 365 453 358 442 b 340 376 346 413 342 394 l 657 167 z m 242 792 b 276 656 242 744 254 697 l 611 656 l 611 675 l 376 675 l 374 679 b 321 814 339 718 321 765 b 586 1039 321 938 440 1039 b 853 814 733 1039 853 938 b 710 675 851 738 788 675 l 631 675 l 631 608 l 742 608 b 929 790 844 608 929 690 l 929 792 b 783 1049 929 899 871 992 l 389 1049 b 242 792 300 992 242 899 z m 367 482 l 372 488 l 763 229 l 801 281 l 361 589 l 307 589 b 242 403 265 533 242 469 l 242 393 l 144 393 b 144 381 144 389 144 385 b 146 347 144 369 144 358 l 192 347 l 192 293 l 282 293 l 282 347 l 322 347 b 321 364 321 353 321 358 b 335 436 321 389 325 414 b 367 482 342 454 353 469 z m 629 83 b 1064 453 899 83 1044 208 l 978 453 b 943 308 971 410 964 357 l 939 297 l 607 522 l 710 522 b 974 631 800 522 921 558 b 1000 675 985 644 994 661 l 1000 900 l 929 900 b 949 792 942 867 949 831 l 949 790 b 742 589 949 679 856 589 l 611 589 l 611 646 l 282 646 b 307 608 289 633 297 621 l 367 608 l 369 607 l 829 285 l 778 218 l 835 181 l 819 174 b 647 140 774 151 715 140 b 365 258 546 140 429 188 l 317 204 b 629 83 383 129 526 83 z m 404 1058 l 767 1058 b 586 1107 714 1089 653 1107 b 404 1058 519 1107 457 1089 z m 543 15 l 543 35 l 440 35 b 543 15 472 26 507 19 z m 1154 99 l 1154 17 l 1293 17 l 1293 99 l 1154 99 z m 226 594 l 221 588 b 146 413 178 535 153 475 l 222 413 b 290 599 225 479 249 543 b 222 792 246 656 222 722 b 586 1126 222 976 385 1126 b 925 910 740 1126 874 1036 l 1010 910 l 1010 699 b 1032 814 1025 736 1032 775 b 586 1188 1032 1019 832 1188 b 140 814 340 1188 140 1019 b 221 600 140 738 168 664 l 226 594 z m 1144 108 l 1293 108 l 1293 174 l 1194 174 b 1090 199 1158 174 1122 182 l 1081 203 l 1086 213 b 1153 453 1128 286 1142 372 l 1083 453 b 629 64 1064 194 911 64 b 296 199 521 64 367 111 l 290 206 l 354 274 b 324 338 339 293 329 314 l 292 338 l 292 283 l 182 283 l 182 338 l 147 338 b 410 44 164 201 261 96 l 554 44 l 554 21 l 660 21 l 660 44 l 872 44 b 965 88 907 56 938 69 l 971 90 l 1035 49 b 1140 17 1065 28 1103 17 l 1144 17 l 1144 108 z m 669 35 l 669 11 l 589 11 b 626 10 601 11 614 10 b 839 35 707 10 778 19 l 669 35 z m 525 949 b 551 947 535 949 543 947 b 574 944 558 946 567 946 b 576 944 575 944 575 944 b 624 932 593 942 608 938 b 624 932 624 932 624 932 b 631 929 626 931 629 929 b 635 928 632 928 633 928 b 643 924 638 926 640 925 b 650 921 646 922 649 922 b 653 919 651 921 651 919 b 663 914 656 918 660 917 b 671 910 665 913 668 911 b 679 904 674 908 676 906 b 686 900 682 903 685 901 b 686 900 686 900 686 900 b 693 896 689 899 690 897 b 693 896 693 896 693 896 b 704 888 696 893 700 890 b 710 882 706 886 708 883 b 715 876 711 881 714 879 b 719 874 717 875 718 875 b 725 868 721 871 722 869 b 736 854 729 864 732 860 b 738 854 736 854 738 854 b 739 850 738 853 739 851 b 749 838 743 846 746 842 b 751 835 750 836 750 836 b 753 832 751 833 751 833 b 754 828 753 831 754 829 b 760 821 756 825 758 824 b 761 815 760 818 761 817 b 763 815 761 815 763 815 b 769 797 765 808 768 803 b 771 796 769 797 769 796 b 771 796 771 796 771 796 b 771 794 771 796 771 796 b 775 779 772 790 774 785 b 776 775 776 778 776 776 b 776 772 776 775 776 774 b 779 763 778 769 778 767 b 779 758 779 761 779 760 b 779 758 779 758 779 758 b 781 753 779 756 781 754 b 782 733 781 746 782 740 b 782 732 782 732 782 732 b 781 717 782 726 781 722 b 833 813 811 738 832 772 b 586 1019 833 926 722 1019 b 363 899 488 1019 401 969 b 525 949 407 929 464 949 z m 1140 -3 b 1024 32 1099 -3 1058 8 l 971 67 b 626 -10 886 17 769 -10 b 125 381 336 -10 125 154 b 200 594 125 457 151 531 b 121 814 149 660 121 735 b 150 950 121 861 131 907 b 132 926 143 942 138 935 b 129 922 131 925 129 924 b 113 896 124 914 118 906 b 111 893 113 896 113 894 b 97 865 106 883 101 875 b 97 865 97 865 97 865 b 97 865 97 865 97 865 b 97 865 97 865 97 865 b 86 836 93 856 89 846 b 86 836 86 836 86 836 b 86 836 86 836 86 836 b 85 832 86 835 85 833 b 78 804 82 822 79 814 b 76 799 76 801 76 800 l 76 799 b 76 799 76 799 76 799 b 71 769 74 789 72 779 b 71 764 71 768 71 767 b 71 764 71 764 71 764 b 71 764 71 764 71 764 b 69 733 69 754 69 743 b 151 514 69 651 100 575 b 74 300 103 453 74 379 b 565 -81 74 90 263 -81 b 583 -81 571 -81 578 -81 b 583 -81 583 -81 583 -81 b 636 -78 601 -79 619 -79 b 636 -78 636 -78 636 -78 b 686 -74 654 -76 669 -75 b 686 -74 686 -74 686 -74 b 732 -67 701 -71 717 -69 b 732 -67 732 -67 732 -67 b 774 -57 747 -64 761 -61 b 775 -57 774 -57 775 -57 b 813 -46 788 -54 800 -50 b 814 -46 813 -46 814 -46 b 847 -33 825 -42 838 -37 b 849 -32 849 -33 849 -33 b 881 -18 860 -28 871 -24 b 881 -18 881 -18 881 -18 b 910 -1 892 -12 900 -7 l 968 -40 b 992 -54 975 -46 983 -50 b 994 -56 993 -54 993 -56 b 994 -56 994 -56 994 -56 b 994 -56 994 -56 994 -56 b 996 -56 994 -56 996 -56 b 996 -56 996 -56 996 -56 b 1018 -64 1003 -60 1010 -62 b 1026 -67 1021 -65 1024 -67 b 1044 -71 1032 -68 1039 -69 b 1053 -72 1047 -71 1050 -72 b 1079 -74 1061 -74 1069 -74 l 1206 -74 l 1206 -74 l 1242 -74 l 1296 -3 l 1140 -3 z m 969 564 b 1001 624 982 582 993 603 b 1015 661 1007 636 1011 649 b 990 618 1008 647 1000 632 b 710 501 929 539 803 501 l 671 501 l 753 447 b 969 564 836 469 929 513 z m 957 447 l 908 382 l 903 346 l 931 326 b 957 447 944 368 951 408 z "},"?":{"ha":1260,"x_min":0,"x_max":0,"o":"m 540 -10 l 540 144 l 489 76 l 489 -81 l 763 -81 l 817 -10 l 540 -10 z m 814 10 l 814 147 l 560 147 l 560 10 l 814 10 z m 394 724 l 394 785 b 644 1033 394 922 507 1033 b 893 785 782 1033 893 922 b 839 678 893 742 874 703 l 682 539 l 689 539 l 689 442 l 947 629 b 1007 747 985 657 1007 701 b 644 1107 1006 882 957 1107 b 350 996 513 1107 414 1069 b 271 724 274 906 268 782 l 394 724 z m 264 861 l 264 1032 b 158 840 215 978 178 913 l 260 840 b 264 861 261 847 263 854 z m 274 1042 l 274 896 b 336 1008 286 935 306 974 b 644 1126 403 1086 507 1126 b 985 942 840 1126 938 1039 l 985 1076 b 685 1188 900 1149 796 1188 l 614 1188 b 274 1042 481 1188 360 1132 z m 994 1068 l 994 919 b 997 911 996 917 996 914 l 1108 911 b 1015 1047 1086 961 1056 1007 b 994 1068 1008 1056 1001 1063 z m 1147 714 b 1113 901 1149 779 1138 843 l 1001 901 b 1026 747 1021 843 1026 786 b 958 614 1028 694 1001 644 l 565 328 l 814 328 l 814 353 l 1039 508 b 1147 714 1106 556 1146 632 z m 156 831 b 140 724 146 796 142 761 l 251 724 b 257 831 250 750 250 789 l 156 831 z m 1050 493 l 833 343 l 833 317 l 983 419 b 1054 496 1013 440 1036 467 b 1050 493 1053 494 1051 493 z m 814 308 l 560 308 l 560 258 l 814 258 l 814 308 z m 560 379 l 560 349 l 660 421 l 568 421 b 560 379 563 408 560 394 z m 540 239 l 540 379 b 544 413 540 390 542 401 l 515 372 b 514 371 514 372 514 372 b 510 367 513 369 511 368 b 510 367 510 367 510 367 l 510 365 l 510 365 b 510 365 510 365 510 365 b 504 357 507 363 506 360 b 500 350 503 356 501 353 b 500 350 500 350 500 350 b 494 335 499 344 496 340 l 494 335 b 494 333 494 333 494 333 b 494 333 494 333 494 333 b 490 318 493 329 492 324 l 490 318 b 489 310 490 315 490 313 b 489 299 489 306 489 303 b 489 299 489 299 489 299 l 489 168 l 763 168 l 763 168 l 817 239 l 540 239 z m 121 704 l 121 714 b 169 926 121 790 139 863 b 164 918 167 924 165 921 b 153 904 160 914 156 908 b 146 894 150 901 149 897 b 146 894 146 894 146 894 b 139 882 143 890 142 886 b 135 875 138 879 136 878 b 135 875 135 875 135 875 b 132 871 135 874 133 872 b 132 871 132 871 132 871 b 124 856 129 867 126 861 b 124 856 124 856 124 856 b 121 850 124 854 122 851 b 114 836 118 846 117 840 b 114 836 114 836 114 836 b 103 808 110 828 106 818 b 103 808 103 808 103 808 b 99 796 101 804 100 800 b 94 786 97 793 96 790 b 94 786 94 786 94 786 b 92 775 93 783 92 779 b 86 760 89 769 88 765 b 83 750 86 757 85 754 b 83 750 83 750 83 750 b 82 740 83 747 82 744 b 82 740 82 740 82 740 b 81 736 81 739 81 738 b 71 661 75 711 72 686 b 69 657 71 660 69 658 b 69 657 69 657 69 657 b 69 633 69 649 69 642 l 69 633 l 343 633 l 397 704 l 121 704 z m 583 943 b 690 918 622 943 658 933 l 690 918 b 704 910 696 915 700 913 b 706 910 706 910 706 910 b 724 897 713 906 718 901 b 726 894 725 897 725 896 b 743 882 732 890 738 886 b 743 882 743 882 743 882 b 746 879 744 881 744 881 b 750 875 747 878 749 876 b 756 869 751 874 754 871 b 757 868 756 869 757 868 b 774 849 763 863 768 856 b 778 842 775 846 776 844 b 782 836 779 840 781 839 b 785 833 783 836 783 835 b 790 824 786 831 789 826 b 790 824 790 824 790 824 b 796 814 792 821 794 817 b 803 800 799 810 800 804 b 806 792 804 797 804 794 b 811 779 807 788 808 783 b 813 772 811 776 813 775 b 818 753 814 767 817 760 b 818 750 818 753 818 751 b 818 749 818 750 818 749 b 821 732 819 743 821 738 b 821 728 821 731 821 729 b 822 725 821 728 822 726 b 822 704 822 718 822 711 b 822 703 822 704 822 704 b 822 689 822 699 822 693 l 826 693 b 874 785 857 715 874 749 b 644 1014 874 911 771 1014 b 446 899 560 1014 485 968 b 583 943 485 926 532 943 l 583 943 z m 679 435 l 679 529 l 672 529 l 596 461 b 572 431 586 453 579 442 l 674 431 l 679 435 z "},"!":{"ha":508,"x_min":0,"x_max":0,"o":"m 394 544 l 274 544 l 274 1128 l 140 1128 l 140 383 l 200 383 l 200 311 l 351 311 l 351 383 l 394 383 l 394 544 z m 140 374 l 140 258 l 394 258 l 394 374 l 361 374 l 361 301 l 190 301 l 190 374 l 140 374 z m 394 1188 l 140 1188 l 140 1147 l 293 1147 l 293 564 l 394 564 l 394 1188 z m 121 239 l 121 1183 l 69 1115 l 69 1115 l 69 325 l 69 168 l 343 168 l 397 239 l 121 239 z m 394 10 l 394 147 l 140 147 l 140 10 l 394 10 z m 121 -10 l 121 144 l 69 76 l 69 -81 l 343 -81 l 397 -10 l 121 -10 z "},"}":{"ha":893,"x_min":0,"x_max":0,"o":"m 517 574 l 456 539 b 401 444 422 519 401 483 l 401 172 l 69 172 l 69 0 l 449 0 b 675 226 574 0 675 101 l 675 494 l 753 539 b 782 588 771 549 782 568 l 782 608 b 753 657 782 628 771 647 l 675 701 l 675 969 b 449 1196 675 1094 574 1196 l 69 1196 l 69 1024 l 401 1024 l 401 751 b 456 657 401 713 422 676 l 517 622 b 517 574 536 611 536 585 z "},"{":{"ha":893,"x_min":0,"x_max":0,"o":"m 333 622 l 394 657 b 449 751 428 676 449 713 l 449 1024 l 782 1024 l 782 1196 l 401 1196 b 175 969 276 1196 175 1094 l 175 701 l 97 657 b 69 608 81 647 69 628 l 69 588 b 97 539 69 568 81 549 l 175 494 l 175 226 b 401 0 175 101 276 0 l 782 0 l 782 172 l 449 172 l 449 444 b 394 539 449 483 428 519 l 333 574 b 333 622 315 585 315 611 z "},"/":{"ha":1021,"x_min":0,"x_max":0,"o":"m 69 0 l 369 0 l 910 1196 l 608 1196 l 69 0 z "},"\\":{"ha":1021,"x_min":0,"x_max":0,"o":"m 910 0 l 369 1196 l 69 1196 l 608 0 l 910 0 z "},"%":{"ha":1288,"x_min":0,"x_max":0,"o":"m 442 1161 b 324 1194 407 1182 367 1194 b 307 1194 324 1194 314 1194 b 290 1194 299 1194 290 1194 b 172 1161 247 1194 206 1182 b 69 971 107 1121 69 1047 l 69 893 b 138 731 69 832 93 772 b 146 724 140 728 143 726 b 307 669 190 686 249 669 b 468 724 365 669 424 686 b 476 731 471 726 474 728 b 544 893 521 772 544 832 l 544 971 b 442 1161 544 1047 507 1121 z m 419 857 b 382 778 419 828 404 797 b 307 750 363 761 335 751 b 232 778 279 751 251 761 b 193 857 210 797 193 828 b 193 1008 193 857 193 1008 b 304 1115 196 1068 244 1115 b 307 1114 306 1115 306 1114 b 308 1115 307 1114 308 1115 b 419 1008 368 1115 417 1068 b 419 857 419 1008 419 857 z m 1074 490 b 956 525 1039 513 999 525 b 939 525 956 525 946 525 b 922 525 931 525 922 525 b 804 490 879 525 838 513 b 701 300 739 450 701 378 l 701 224 b 769 61 701 163 725 103 b 778 54 772 58 775 56 b 939 0 822 15 881 0 b 1100 54 997 0 1054 15 b 1108 61 1103 56 1106 58 b 1176 224 1153 103 1176 163 l 1176 300 b 1074 490 1176 378 1139 450 z m 1051 188 b 1014 108 1051 157 1036 128 b 939 81 994 92 967 82 b 863 108 910 82 883 92 b 825 188 842 128 825 157 b 825 339 825 188 825 339 b 936 444 828 397 876 444 b 939 444 938 444 938 444 b 940 444 939 444 940 444 b 1051 339 1000 444 1049 397 b 1051 188 1051 339 1051 188 z m 203 0 l 503 0 l 1043 1196 l 742 1196 l 203 0 z "},"£":{"ha":1392,"x_min":0,"x_max":0,"o":"m 531 378 l 724 378 l 724 535 l 531 535 l 531 783 b 769 1024 531 915 638 1024 l 769 1024 b 1010 783 903 1024 1010 915 b 1010 774 1010 781 1010 778 l 1281 774 b 810 1196 1256 1011 1056 1196 l 739 1196 b 257 742 482 1196 272 994 l 257 742 l 257 535 l 69 535 l 69 378 l 257 378 l 257 0 l 1142 0 l 1142 172 l 531 172 l 531 378 z "},">":{"ha":772,"x_min":0,"x_max":0,"o":"m 69 686 l 358 567 l 69 446 l 69 194 l 661 440 l 661 692 l 69 938 l 69 686 z "},"¥":{"ha":1138,"x_min":0,"x_max":0,"o":"m 1026 1196 l 715 1196 l 549 886 l 381 1196 l 69 1196 l 344 686 l 150 686 l 150 531 l 411 531 l 411 308 l 150 308 l 150 153 l 411 153 l 411 0 l 685 0 l 685 153 l 946 153 l 946 308 l 685 308 l 685 531 l 946 531 l 946 686 l 751 686 l 1026 1196 z "},"<":{"ha":772,"x_min":0,"x_max":0,"o":"m 661 446 l 372 567 l 661 686 l 661 938 l 69 692 l 69 440 l 661 194 l 661 446 z "},"$":{"ha":1108,"x_min":0,"x_max":0,"o":"m 661 722 l 647 722 l 647 893 l 889 893 l 889 1143 l 647 1143 l 647 1196 l 474 1196 l 474 1143 l 404 1143 b 69 808 219 1143 69 993 l 69 808 b 404 472 69 622 219 472 l 474 472 l 474 301 l 194 301 l 194 51 l 474 51 l 474 0 l 647 0 l 647 51 l 661 51 b 997 388 846 51 997 201 l 997 388 b 661 722 997 572 846 722 z m 404 722 b 319 808 357 722 319 761 b 404 893 319 856 357 893 l 474 893 l 474 722 l 404 722 z m 747 388 b 661 301 747 340 708 301 l 647 301 l 647 472 l 661 472 b 747 388 708 472 747 435 l 747 388 z "},"+":{"ha":835,"x_min":0,"x_max":0,"o":"m 724 722 l 475 722 l 475 971 l 318 971 l 318 722 l 69 722 l 69 565 l 318 565 l 318 317 l 475 317 l 475 565 l 724 565 l 724 722 z "},"]":{"ha":786,"x_min":0,"x_max":0,"o":"m 675 0 l 675 1196 l 69 1196 l 69 1024 l 401 1024 l 401 172 l 69 172 l 69 0 l 675 0 z "},"#":{"ha":1157,"x_min":0,"x_max":0,"o":"m 829 690 l 1018 690 l 1046 871 l 860 871 l 913 1196 l 733 1196 l 679 871 l 524 871 l 576 1196 l 397 1196 l 344 871 l 165 871 l 138 690 l 314 690 l 276 464 l 97 464 l 69 282 l 247 282 l 200 0 l 379 0 l 426 282 l 582 282 l 536 0 l 715 0 l 763 282 l 950 282 l 978 464 l 792 464 z m 649 690 l 613 464 l 457 464 l 493 690 z "},"[":{"ha":786,"x_min":0,"x_max":0,"o":"m 69 1196 l 69 0 l 675 0 l 675 172 l 343 172 l 343 1024 l 675 1024 l 675 1196 l 69 1196 z "},")":{"ha":786,"x_min":0,"x_max":0,"o":"m 675 226 l 675 969 b 449 1196 675 1094 574 1196 l 69 1196 l 69 1024 l 401 1024 l 401 172 l 69 172 l 69 0 l 449 0 b 675 226 574 0 675 101 z "},"-":{"ha":710,"x_min":0,"x_max":0,"o":"m 599 722 l 69 722 l 69 565 l 599 565 l 599 722 z "},"@":{"ha":1244,"x_min":0,"x_max":0,"o":"m 963 251 l 958 249 b 624 125 857 165 746 125 b 306 257 490 125 385 168 b 193 586 231 342 193 451 b 317 939 193 733 235 851 b 632 1069 400 1026 504 1069 b 899 967 743 1069 832 1035 b 999 694 965 897 999 807 b 964 519 999 628 986 569 b 900 425 947 483 925 451 b 803 372 867 390 835 372 b 790 386 794 372 790 378 l 876 935 l 718 935 l 714 906 b 564 982 675 957 625 982 b 333 824 468 982 392 929 b 260 536 285 736 260 640 b 315 331 260 453 278 385 b 496 235 357 267 418 235 b 582 253 529 235 557 242 b 651 304 601 264 625 281 b 763 235 668 258 706 235 b 1029 390 869 235 958 286 b 1122 694 1092 482 1122 583 b 888 1135 1122 893 1044 1039 b 631 1196 822 1175 736 1196 b 218 1017 454 1196 317 1136 b 69 579 119 899 69 753 b 228 158 69 404 122 264 b 624 0 335 53 467 0 b 897 60 719 0 811 19 b 1118 232 986 101 1060 158 l 1133 251 z m 617 539 b 581 450 604 499 592 469 b 496 403 558 418 531 403 b 429 443 467 403 444 415 b 411 517 417 464 411 489 b 442 690 411 576 421 635 b 564 807 469 768 510 807 b 628 772 593 807 614 796 b 644 706 639 754 644 732 b 617 539 644 653 635 597 z "},"~":{"ha":1026,"x_min":0,"x_max":0,"o":"m 358 528 b 483 478 382 528 422 511 b 679 408 564 432 631 410 b 915 542 764 406 844 450 l 792 633 b 686 560 754 585 719 560 l 686 560 b 626 574 668 560 647 564 l 626 574 b 499 642 583 596 542 619 b 364 679 449 665 404 678 b 135 550 281 683 203 639 l 258 458 b 358 528 294 504 328 528 z m 689 389 b 679 389 685 389 682 389 b 474 460 626 390 558 414 b 358 508 403 500 372 508 b 268 439 333 508 303 485 l 261 432 l 117 539 l 69 429 l 208 326 b 307 399 244 375 278 399 b 426 350 328 399 368 383 b 628 281 510 304 576 281 b 876 425 719 276 801 325 l 914 510 b 689 389 846 429 769 389 z "},"=":{"ha":835,"x_min":0,"x_max":0,"o":"m 69 374 l 724 374 l 724 531 l 69 531 l 69 374 z m 69 753 l 724 753 l 724 908 l 69 908 l 69 753 z "},"^":{"ha":925,"x_min":0,"x_max":0,"o":"m 321 671 l 442 960 l 561 671 l 814 671 l 567 1263 l 315 1263 l 69 671 l 321 671 z "},"(":{"ha":786,"x_min":0,"x_max":0,"o":"m 69 969 l 69 226 b 296 0 69 101 171 0 l 675 0 l 675 172 l 343 172 l 343 1024 l 675 1024 l 675 1196 l 296 1196 b 69 969 171 1196 69 1094 z "},"|":{"ha":454,"x_min":0,"x_max":0,"o":"m 343 1263 l 69 1263 l 69 -126 l 343 -126 l 343 1263 z "},"*":{"ha":721,"x_min":0,"x_max":0,"o":"m 610 1001 l 557 1167 l 417 1117 l 425 1263 l 251 1263 l 256 1121 l 126 1167 l 69 1001 l 206 947 l 113 856 l 257 750 l 336 867 l 415 750 l 557 856 l 457 958 l 610 1001 z "},";":{"ha":508,"x_min":0,"x_max":0,"o":"m 394 767 l 394 903 l 140 903 l 140 767 l 394 767 z m 121 747 l 121 900 l 69 832 l 69 676 l 343 676 l 397 747 l 121 747 z m 397 607 l 143 607 l 143 469 l 303 469 l 306 463 b 299 371 317 424 315 393 b 249 343 285 351 261 344 l 249 301 b 351 343 292 304 326 317 b 397 460 397 389 397 460 l 397 607 z m 321 299 b 317 297 319 297 318 297 b 294 289 310 294 303 292 b 294 289 294 289 294 289 b 271 285 288 288 279 285 b 265 283 268 283 267 283 b 239 282 257 282 247 282 l 229 282 l 229 331 l 193 285 l 193 225 b 342 310 279 225 321 267 b 321 299 335 306 328 301 z m 256 365 l 256 364 b 278 376 263 367 271 371 b 283 383 279 378 282 381 b 289 450 294 399 296 421 l 124 450 l 124 607 l 88 549 l 88 549 l 88 393 l 250 393 b 256 365 253 382 256 374 z "},":":{"ha":508,"x_min":0,"x_max":0,"o":"m 394 767 l 394 903 l 140 903 l 140 767 l 394 767 z m 121 747 l 121 900 l 69 832 l 69 676 l 343 676 l 397 747 l 121 747 z m 394 471 l 394 607 l 140 607 l 140 471 l 394 471 z m 121 451 l 121 604 l 69 536 l 69 381 l 343 381 l 397 451 l 121 451 z "},"`":{"ha":482,"x_min":0,"x_max":0,"o":"m 364 1022 l 279 1263 l 142 1263 l 221 1022 l 364 1022 z m 207 1003 l 121 1263 l 69 1194 l 156 935 l 319 935 l 371 1003 l 207 1003 z "},"'":{"ha":490,"x_min":0,"x_max":0,"o":"m 379 1188 l 125 1188 l 125 1050 l 286 1050 l 288 1043 b 281 951 299 1004 297 974 b 231 924 267 932 243 925 l 231 882 b 333 924 274 883 308 897 b 379 1040 379 969 379 1039 l 379 1188 z m 303 879 b 300 878 301 878 300 878 b 276 869 292 874 285 871 b 276 869 276 869 276 869 b 253 864 269 867 261 865 b 247 864 250 864 249 864 b 221 863 239 863 229 863 l 211 863 l 211 911 l 175 865 l 175 804 b 324 890 261 804 303 847 b 303 879 317 886 310 882 z m 239 946 l 238 944 b 260 957 244 947 253 950 b 265 964 261 958 264 961 b 271 1031 276 979 278 1001 l 106 1031 l 106 1188 l 69 1129 l 69 1129 l 69 972 l 232 972 b 239 946 236 963 238 954 z "},"’":{"ha":456,"x_min":0,"x_max":0,"o":"m 343 1117 l 343 1196 l 69 1196 l 69 1039 l 232 1039 b 175 931 265 932 175 931 l 175 871 b 343 1039 344 871 343 1039 l 343 1117 l 343 1117 z "},"\"":{"ha":876,"x_min":0,"x_max":0,"o":"m 379 1188 l 125 1188 l 125 1050 l 286 1050 l 288 1043 b 281 951 299 1004 297 974 b 231 924 267 932 243 925 l 231 882 b 333 924 274 883 308 897 b 379 1040 379 969 379 1039 l 379 1188 z m 303 879 b 300 878 301 878 300 878 b 276 869 292 874 285 871 b 276 869 276 869 276 869 b 253 864 269 867 261 865 b 247 864 250 864 249 864 b 221 863 239 863 229 863 l 211 863 l 211 911 l 175 865 l 175 804 b 324 890 261 804 303 847 b 303 879 317 886 310 882 z m 239 946 l 238 944 b 260 957 244 947 253 950 b 265 964 261 958 264 961 b 271 1031 276 979 278 1001 l 106 1031 l 106 1188 l 69 1129 l 69 1129 l 69 972 l 232 972 b 239 946 236 963 238 954 z m 765 1188 l 511 1188 l 511 1050 l 672 1050 l 674 1043 b 667 951 685 1004 683 974 b 617 924 653 932 629 925 l 617 882 b 719 924 660 883 694 897 b 765 1040 765 969 765 1039 l 765 1188 z m 689 879 b 686 878 688 878 686 878 b 663 869 678 874 671 871 b 663 869 663 869 663 869 b 639 864 656 867 647 865 b 633 864 636 864 635 864 b 607 863 625 863 615 863 l 597 863 l 597 911 l 561 865 l 561 804 b 710 890 647 804 689 847 b 689 879 703 886 696 882 z m 625 946 l 624 944 b 646 957 631 947 639 950 b 651 964 647 958 650 961 b 657 1031 663 979 664 1001 l 492 1031 l 492 1188 l 456 1129 l 456 1129 l 456 972 l 618 972 b 625 946 622 963 624 954 z "},"”":{"ha":792,"x_min":0,"x_max":0,"o":"m 679 1117 l 679 1196 l 406 1196 l 406 1039 l 568 1039 b 511 931 600 932 511 931 l 511 871 b 679 1039 681 871 679 1039 l 679 1117 l 679 1117 z m 343 1117 l 343 1196 l 69 1196 l 69 1039 l 232 1039 b 175 931 265 932 175 931 l 175 871 b 343 1039 344 871 343 1039 l 343 1117 l 343 1117 z "},"‘":{"ha":456,"x_min":0,"x_max":0,"o":"m 71 942 l 71 863 l 344 863 l 344 1019 l 182 1019 b 239 1128 149 1126 239 1128 l 239 1188 b 71 1019 69 1188 71 1019 z "},"“":{"ha":792,"x_min":0,"x_max":0,"o":"m 71 944 l 71 865 l 344 865 l 344 1022 l 182 1022 b 239 1131 150 1129 239 1131 l 239 1190 b 71 1022 69 1190 71 1022 z m 407 944 l 407 865 l 681 865 l 681 1022 l 518 1022 b 575 1131 485 1129 575 1131 l 575 1190 b 407 1022 406 1190 407 1022 z "},"_":{"ha":1083,"x_min":0,"x_max":0,"o":"m 972 67 l 69 67 l 69 -90 l 972 -90 l 972 67 z "},",":{"ha":490,"x_min":0,"x_max":0,"o":"m 379 147 l 125 147 l 125 10 l 286 10 l 288 3 b 281 -87 299 -36 297 -67 b 231 -117 267 -108 243 -114 l 231 -157 b 333 -117 274 -156 308 -142 b 379 0 379 -71 379 0 l 379 147 z m 303 -161 b 300 -162 301 -161 300 -162 b 276 -171 292 -165 285 -168 b 276 -171 276 -171 276 -171 b 253 -175 269 -172 261 -174 b 247 -176 250 -175 249 -175 b 221 -178 239 -176 229 -178 l 211 -178 l 211 -129 l 175 -175 l 175 -235 b 324 -150 261 -235 303 -192 b 303 -161 317 -154 310 -158 z m 239 -94 l 238 -94 b 260 -83 244 -93 253 -89 b 265 -76 261 -81 264 -79 b 271 -10 276 -61 278 -39 l 106 -10 l 106 147 l 69 89 l 69 89 l 69 -67 l 232 -67 b 239 -94 236 -76 238 -86 z "},".":{"ha":508,"x_min":0,"x_max":0,"o":"m 394 11 l 394 147 l 140 147 l 140 11 l 394 11 z m 121 -8 l 121 144 l 69 76 l 69 -79 l 343 -79 l 397 -8 l 121 -8 z "},"u":{"ha":1425,"x_min":0,"x_max":0,"o":"m 560 149 b 728 118 611 129 668 118 b 896 149 786 118 843 129 l 799 149 l 799 228 b 728 221 775 224 751 221 b 706 222 719 221 713 222 l 706 149 l 560 149 z m 918 158 b 1196 586 1082 232 1196 396 l 1196 1186 l 1060 1186 l 1060 426 l 1058 425 b 808 231 1007 324 915 254 l 808 158 l 918 158 z m 1040 1183 l 989 1115 l 989 357 b 1040 432 1008 379 1026 404 l 1040 1183 z m 536 158 l 696 158 l 696 222 b 396 425 568 233 454 308 l 394 426 l 394 1186 l 258 1186 l 258 586 b 536 158 258 396 372 232 z m 1249 567 l 1249 482 l 1303 482 b 1314 596 1310 519 1314 557 l 1314 1186 l 1304 1186 l 1304 567 l 1249 567 z m 121 596 l 121 1183 l 69 1115 l 69 1115 l 69 614 l 69 515 b 667 -81 69 186 336 -81 b 714 -79 682 -81 699 -81 b 749 -75 726 -78 738 -76 b 760 -74 753 -75 756 -74 b 838 -56 786 -69 813 -64 b 838 -56 838 -56 838 -56 b 838 -56 838 -56 838 -56 b 1138 150 958 -19 1063 54 b 728 -10 1029 51 886 -10 b 121 596 393 -10 121 263 z m 211 701 l 211 786 l 154 786 l 154 1186 l 140 1186 l 140 596 b 154 468 140 553 146 510 l 154 701 l 211 701 z m 1294 444 l 1294 472 l 1239 472 l 1239 576 l 1294 576 l 1294 1186 l 1215 1186 l 1215 586 b 728 99 1215 317 996 99 b 239 586 458 99 239 317 l 239 1186 l 164 1186 l 164 796 l 221 796 l 221 692 l 164 692 l 164 431 b 482 64 213 267 331 133 l 972 64 b 1294 444 1129 136 1249 275 z m 504 53 b 728 10 574 25 649 10 b 950 53 806 10 881 25 l 504 53 z "},"S":{"ha":1247,"x_min":0,"x_max":0,"o":"m 415 839 b 421 840 417 839 418 839 b 438 842 425 840 431 842 l 968 842 l 1022 913 l 499 913 b 415 839 456 913 419 879 z m 278 840 b 408 617 278 751 314 657 l 408 679 l 953 679 b 779 725 901 708 842 725 l 499 725 b 394 828 440 725 394 771 b 499 932 394 885 440 932 l 1019 932 l 1019 1047 l 556 1047 b 278 840 385 1047 278 968 z m 1136 367 b 969 669 1136 494 1069 606 l 418 669 l 418 613 b 517 596 446 603 478 596 l 550 596 l 715 596 l 749 596 b 1026 332 913 596 1026 488 b 710 107 1026 197 900 107 l 278 107 l 278 10 l 779 10 b 1136 367 976 10 1136 169 z m 257 -10 l 257 261 l 207 193 l 207 -81 l 718 -81 b 1018 76 842 -81 951 -19 b 779 -10 953 22 869 -10 l 257 -10 z m 365 225 l 971 225 b 1007 332 993 254 1007 289 b 749 576 1007 476 901 576 l 715 576 l 550 576 l 517 576 b 303 679 419 576 346 614 l 197 679 l 197 918 l 151 918 b 140 828 144 889 140 860 b 499 471 140 631 301 471 l 779 471 b 882 367 836 471 882 424 b 779 264 882 310 836 264 l 278 264 l 278 126 l 365 126 l 365 225 z m 863 367 b 779 451 863 414 825 451 l 499 451 b 121 828 290 451 121 621 b 154 982 121 883 133 935 b 154 982 154 982 154 982 b 135 957 147 974 140 965 b 129 949 133 954 131 951 b 117 929 125 942 121 935 b 113 919 115 926 114 922 b 99 892 107 911 103 901 b 99 892 99 892 99 892 b 88 860 94 881 90 871 b 88 860 88 860 88 860 b 86 857 86 858 86 858 b 86 857 86 857 86 857 b 83 844 85 853 83 849 b 76 822 81 838 78 829 b 76 822 76 822 76 822 b 74 803 75 815 75 808 b 71 785 74 797 72 792 b 71 785 71 785 71 785 b 69 747 69 772 69 760 l 69 747 b 438 381 69 544 233 381 l 618 381 l 718 381 b 811 290 768 381 810 340 b 863 367 842 303 863 332 z m 207 689 l 296 689 b 258 840 271 731 258 782 b 556 1067 258 979 372 1067 l 1019 1067 l 1019 1111 l 868 1111 l 868 1160 l 822 1160 l 822 1111 l 279 1111 b 154 928 221 1065 176 1001 l 207 928 l 207 689 z m 961 215 l 375 215 l 375 126 l 710 126 b 961 215 808 126 907 154 z m 813 1169 l 878 1169 l 878 1121 l 1019 1121 l 1019 1186 l 499 1186 b 293 1121 421 1186 351 1161 l 813 1121 l 813 1169 z "},"s":{"ha":1247,"x_min":0,"x_max":0,"o":"m 415 839 b 421 840 417 839 418 839 b 438 842 425 840 431 842 l 968 842 l 1022 913 l 499 913 b 415 839 456 913 419 879 z m 278 840 b 408 617 278 751 314 657 l 408 679 l 953 679 b 779 725 901 708 842 725 l 499 725 b 394 828 440 725 394 771 b 499 932 394 885 440 932 l 1019 932 l 1019 1047 l 556 1047 b 278 840 385 1047 278 968 z m 1136 367 b 969 669 1136 494 1069 606 l 418 669 l 418 613 b 517 596 446 603 478 596 l 550 596 l 715 596 l 749 596 b 1026 332 913 596 1026 488 b 710 107 1026 197 900 107 l 278 107 l 278 10 l 779 10 b 1136 367 976 10 1136 169 z m 257 -10 l 257 261 l 207 193 l 207 -81 l 718 -81 b 1018 76 842 -81 951 -19 b 779 -10 953 22 869 -10 l 257 -10 z m 365 225 l 971 225 b 1007 332 993 254 1007 289 b 749 576 1007 476 901 576 l 715 576 l 550 576 l 517 576 b 303 679 419 576 346 614 l 197 679 l 197 918 l 151 918 b 140 828 144 889 140 860 b 499 471 140 631 301 471 l 779 471 b 882 367 836 471 882 424 b 779 264 882 310 836 264 l 278 264 l 278 126 l 365 126 l 365 225 z m 863 367 b 779 451 863 414 825 451 l 499 451 b 121 828 290 451 121 621 b 154 982 121 883 133 935 b 154 982 154 982 154 982 b 135 957 147 974 140 965 b 129 949 133 954 131 951 b 117 929 125 942 121 935 b 113 919 115 926 114 922 b 99 892 107 911 103 901 b 99 892 99 892 99 892 b 88 860 94 881 90 871 b 88 860 88 860 88 860 b 86 857 86 858 86 858 b 86 857 86 857 86 857 b 83 844 85 853 83 849 b 76 822 81 838 78 829 b 76 822 76 822 76 822 b 74 803 75 815 75 808 b 71 785 74 797 72 792 b 71 785 71 785 71 785 b 69 747 69 772 69 760 l 69 747 b 438 381 69 544 233 381 l 618 381 l 718 381 b 811 290 768 381 810 340 b 863 367 842 303 863 332 z m 207 689 l 296 689 b 258 840 271 731 258 782 b 556 1067 258 979 372 1067 l 1019 1067 l 1019 1111 l 868 1111 l 868 1160 l 822 1160 l 822 1111 l 279 1111 b 154 928 221 1065 176 1001 l 207 928 l 207 689 z m 961 215 l 375 215 l 375 126 l 710 126 b 961 215 808 126 907 154 z m 813 1169 l 878 1169 l 878 1121 l 1019 1121 l 1019 1186 l 499 1186 b 293 1121 421 1186 351 1161 l 813 1121 l 813 1169 z "},"J":{"ha":892,"x_min":0,"x_max":0,"o":"m 121 -10 l 121 218 l 69 150 l 69 -81 l 285 -81 b 643 101 432 -81 563 -10 b 346 -10 564 32 460 -10 l 121 -10 z m 421 17 b 746 272 567 42 688 140 l 746 593 l 685 593 l 685 439 b 357 111 685 258 538 111 l 140 111 l 140 64 l 421 64 l 421 17 z m 585 231 l 585 657 l 553 657 l 553 756 l 585 756 l 585 1186 l 526 1186 l 526 326 l 525 324 b 329 221 481 260 408 221 l 140 221 l 140 131 l 357 131 b 585 231 447 131 528 169 z m 411 53 l 140 53 l 140 10 l 346 10 b 411 14 368 10 390 11 l 411 53 z m 507 333 l 507 1183 l 456 1115 l 456 282 b 507 333 475 296 493 313 z m 563 746 l 563 667 l 594 667 l 594 242 b 665 439 639 294 665 364 l 665 1186 l 594 1186 l 594 746 l 563 746 z m 717 1057 l 717 1122 l 769 1122 l 769 1057 l 781 1057 l 781 1186 l 685 1186 l 685 1057 l 717 1057 z m 760 1113 l 726 1113 l 726 1047 l 685 1047 l 685 603 l 756 603 l 756 297 b 781 444 772 343 781 393 l 781 1047 l 760 1047 l 760 1113 z "},"j":{"ha":892,"x_min":0,"x_max":0,"o":"m 121 -10 l 121 218 l 69 150 l 69 -81 l 285 -81 b 643 101 432 -81 563 -10 b 346 -10 564 32 460 -10 l 121 -10 z m 421 17 b 746 272 567 42 688 140 l 746 593 l 685 593 l 685 439 b 357 111 685 258 538 111 l 140 111 l 140 64 l 421 64 l 421 17 z m 585 231 l 585 657 l 553 657 l 553 756 l 585 756 l 585 1186 l 526 1186 l 526 326 l 525 324 b 329 221 481 260 408 221 l 140 221 l 140 131 l 357 131 b 585 231 447 131 528 169 z m 411 53 l 140 53 l 140 10 l 346 10 b 411 14 368 10 390 11 l 411 53 z m 507 333 l 507 1183 l 456 1115 l 456 282 b 507 333 475 296 493 313 z m 563 746 l 563 667 l 594 667 l 594 242 b 665 439 639 294 665 364 l 665 1186 l 594 1186 l 594 746 l 563 746 z m 717 1057 l 717 1122 l 769 1122 l 769 1057 l 781 1057 l 781 1186 l 685 1186 l 685 1057 l 717 1057 z m 760 1113 l 726 1113 l 726 1047 l 685 1047 l 685 603 l 756 603 l 756 297 b 781 444 772 343 781 393 l 781 1047 l 760 1047 l 760 1113 z "},"N":{"ha":1192,"x_min":0,"x_max":0,"o":"m 408 1136 l 382 1186 l 342 1186 l 342 1136 l 408 1136 z m 338 1058 l 140 1058 l 140 808 l 211 808 l 211 881 l 346 881 l 346 808 l 394 808 l 394 838 l 410 808 l 478 808 l 338 1058 z m 219 1186 l 140 1186 l 140 1136 l 219 1136 l 219 1186 z m 483 799 l 415 799 l 728 211 l 728 358 l 483 799 z m 351 1074 l 728 399 l 728 538 l 414 1126 l 332 1126 l 332 1186 l 229 1186 l 229 1126 l 140 1126 l 140 1079 l 349 1079 l 351 1074 z m 414 585 l 676 92 l 732 164 l 414 758 l 414 585 z m 336 871 l 221 871 l 221 799 l 140 799 l 140 10 l 229 10 l 229 454 l 394 454 l 394 799 l 336 799 l 336 871 z m 121 1183 l 69 1115 l 69 -81 l 343 -81 l 397 -10 l 121 -10 l 121 1183 z m 239 10 l 394 10 l 394 444 l 239 444 l 239 10 z m 921 911 l 921 1076 l 1024 1076 l 1024 1186 l 824 1186 l 824 813 l 911 813 l 911 282 l 824 282 l 824 10 l 1024 10 l 1024 911 l 921 911 z m 804 1183 l 753 1115 l 753 -81 l 1026 -81 l 1081 -10 l 804 -10 l 804 1183 z m 901 803 l 824 803 l 824 292 l 901 292 l 901 803 z m 1043 1057 l 940 1057 l 940 932 l 1043 932 l 1043 10 l 1078 10 l 1078 1186 l 1043 1186 l 1043 1057 z "},"n":{"ha":1192,"x_min":0,"x_max":0,"o":"m 408 1136 l 382 1186 l 342 1186 l 342 1136 l 408 1136 z m 338 1058 l 140 1058 l 140 808 l 211 808 l 211 881 l 346 881 l 346 808 l 394 808 l 394 838 l 410 808 l 478 808 l 338 1058 z m 219 1186 l 140 1186 l 140 1136 l 219 1136 l 219 1186 z m 483 799 l 415 799 l 728 211 l 728 358 l 483 799 z m 351 1074 l 728 399 l 728 538 l 414 1126 l 332 1126 l 332 1186 l 229 1186 l 229 1126 l 140 1126 l 140 1079 l 349 1079 l 351 1074 z m 414 585 l 676 92 l 732 164 l 414 758 l 414 585 z m 336 871 l 221 871 l 221 799 l 140 799 l 140 10 l 229 10 l 229 454 l 394 454 l 394 799 l 336 799 l 336 871 z m 121 1183 l 69 1115 l 69 -81 l 343 -81 l 397 -10 l 121 -10 l 121 1183 z m 239 10 l 394 10 l 394 444 l 239 444 l 239 10 z m 921 911 l 921 1076 l 1024 1076 l 1024 1186 l 824 1186 l 824 813 l 911 813 l 911 282 l 824 282 l 824 10 l 1024 10 l 1024 911 l 921 911 z m 804 1183 l 753 1115 l 753 -81 l 1026 -81 l 1081 -10 l 804 -10 l 804 1183 z m 901 803 l 824 803 l 824 292 l 901 292 l 901 803 z m 1043 1057 l 940 1057 l 940 932 l 1043 932 l 1043 10 l 1078 10 l 1078 1186 l 1043 1186 l 1043 1057 z "},"K":{"ha":1289,"x_min":0,"x_max":0,"o":"m 867 1043 l 719 1043 l 474 797 l 611 797 l 867 1043 z m 1017 1186 l 864 1186 l 729 1053 l 876 1053 l 1017 1186 z m 563 636 l 1043 1115 l 1061 1139 l 560 639 l 563 636 z m 893 68 l 1103 68 l 1015 156 l 896 156 l 894 157 l 622 422 l 749 422 l 532 639 l 1081 1186 l 1044 1186 l 396 564 l 893 68 z m 379 574 l 600 788 l 465 788 l 465 682 l 368 682 l 368 788 l 278 788 l 278 574 l 379 574 z m 121 1183 l 69 1115 l 69 -81 l 343 -81 l 397 -10 l 121 -10 l 121 1183 z m 793 -10 l 414 369 l 414 242 l 736 -81 l 1124 -81 l 1178 -10 l 793 -10 z m 317 267 l 317 339 l 217 339 l 217 267 l 140 267 l 140 106 l 244 106 l 244 10 l 394 10 l 394 267 l 317 267 z m 207 349 l 326 349 l 326 276 l 394 276 l 394 417 l 801 10 l 1161 10 l 1122 49 l 885 49 l 378 554 l 257 554 l 257 1186 l 140 1186 l 140 276 l 207 276 l 207 349 z m 140 96 l 140 10 l 235 10 l 235 96 l 140 96 z m 394 1053 l 394 1186 l 278 1186 l 278 1053 l 394 1053 z m 278 797 l 378 797 l 378 692 l 456 692 l 456 778 l 394 717 l 394 1043 l 278 1043 l 278 797 z m 900 165 l 1006 165 l 758 413 l 646 413 l 900 165 z "},"k":{"ha":1289,"x_min":0,"x_max":0,"o":"m 867 1043 l 719 1043 l 474 797 l 611 797 l 867 1043 z m 1017 1186 l 864 1186 l 729 1053 l 876 1053 l 1017 1186 z m 563 636 l 1043 1115 l 1061 1139 l 560 639 l 563 636 z m 893 68 l 1103 68 l 1015 156 l 896 156 l 894 157 l 622 422 l 749 422 l 532 639 l 1081 1186 l 1044 1186 l 396 564 l 893 68 z m 379 574 l 600 788 l 465 788 l 465 682 l 368 682 l 368 788 l 278 788 l 278 574 l 379 574 z m 121 1183 l 69 1115 l 69 -81 l 343 -81 l 397 -10 l 121 -10 l 121 1183 z m 793 -10 l 414 369 l 414 242 l 736 -81 l 1124 -81 l 1178 -10 l 793 -10 z m 317 267 l 317 339 l 217 339 l 217 267 l 140 267 l 140 106 l 244 106 l 244 10 l 394 10 l 394 267 l 317 267 z m 207 349 l 326 349 l 326 276 l 394 276 l 394 417 l 801 10 l 1161 10 l 1122 49 l 885 49 l 378 554 l 257 554 l 257 1186 l 140 1186 l 140 276 l 207 276 l 207 349 z m 140 96 l 140 10 l 235 10 l 235 96 l 140 96 z m 394 1053 l 394 1186 l 278 1186 l 278 1053 l 394 1053 z m 278 797 l 378 797 l 378 692 l 456 692 l 456 778 l 394 717 l 394 1043 l 278 1043 l 278 797 z m 900 165 l 1006 165 l 758 413 l 646 413 l 900 165 z "},"Y":{"ha":1182,"x_min":0,"x_max":0,"o":"m 1003 1058 l 1071 1186 l 936 1186 l 867 1058 l 1003 1058 z m 736 565 l 738 568 l 900 869 l 900 897 l 832 897 l 832 826 l 742 826 l 607 578 l 432 903 l 432 658 l 482 565 l 482 468 l 736 468 l 736 565 z m 419 925 l 288 925 l 422 676 l 422 921 l 419 925 z m 747 836 l 822 836 l 822 907 l 910 907 l 910 888 l 997 1049 l 863 1049 l 747 836 z m 617 122 l 736 122 l 736 458 l 482 458 l 482 263 l 617 263 l 617 122 z m 279 1186 l 147 1186 l 283 935 l 415 935 l 279 1186 z m 607 111 l 607 253 l 482 253 l 482 10 l 736 10 l 736 111 l 607 111 z m 463 561 l 124 1188 l 69 1115 l 411 482 l 411 -81 l 685 -81 l 739 -10 l 463 -10 l 463 561 z m 914 1186 l 782 1186 l 610 865 l 436 1186 l 301 1186 l 607 618 l 914 1186 z m 738 1144 l 715 1115 l 606 913 l 610 907 l 738 1144 z "},"y":{"ha":1182,"x_min":0,"x_max":0,"o":"m 1003 1058 l 1071 1186 l 936 1186 l 867 1058 l 1003 1058 z m 736 565 l 738 568 l 900 869 l 900 897 l 832 897 l 832 826 l 742 826 l 607 578 l 432 903 l 432 658 l 482 565 l 482 468 l 736 468 l 736 565 z m 419 925 l 288 925 l 422 676 l 422 921 l 419 925 z m 747 836 l 822 836 l 822 907 l 910 907 l 910 888 l 997 1049 l 863 1049 l 747 836 z m 617 122 l 736 122 l 736 458 l 482 458 l 482 263 l 617 263 l 617 122 z m 279 1186 l 147 1186 l 283 935 l 415 935 l 279 1186 z m 607 111 l 607 253 l 482 253 l 482 10 l 736 10 l 736 111 l 607 111 z m 463 561 l 124 1188 l 69 1115 l 411 482 l 411 -81 l 685 -81 l 739 -10 l 463 -10 l 463 561 z m 914 1186 l 782 1186 l 610 865 l 436 1186 l 301 1186 l 607 618 l 914 1186 z m 738 1144 l 715 1115 l 606 913 l 610 907 l 738 1144 z "},"Q":{"ha":1428,"x_min":0,"x_max":0,"o":"m 349 324 l 349 222 l 449 222 b 349 324 410 251 376 285 z m 583 1111 l 769 1111 l 769 1154 l 919 1154 b 728 1186 858 1175 794 1186 b 535 1154 660 1186 596 1175 l 583 1154 l 583 1111 z m 728 150 b 1025 263 838 150 942 190 l 938 483 l 806 483 l 901 254 l 893 251 b 728 213 840 226 785 213 b 346 550 532 213 369 357 l 281 550 b 728 150 306 325 496 150 z m 1229 292 b 1294 444 1258 340 1281 390 l 1229 444 l 1229 292 z m 261 550 l 142 550 b 196 347 147 478 165 410 l 332 347 b 261 550 293 407 268 476 z m 728 131 b 463 213 629 131 538 161 l 339 213 l 339 338 b 339 338 339 338 339 338 l 200 338 b 432 89 251 233 333 147 l 432 117 l 638 117 l 638 17 b 728 10 667 13 697 10 b 969 63 811 10 893 28 l 979 67 l 1003 10 l 1124 10 l 1032 243 b 728 131 947 171 839 131 z m 1190 235 b 1219 276 1200 249 1210 263 l 1219 454 l 1297 454 b 1314 550 1306 486 1311 518 l 1193 550 b 1144 385 1188 493 1172 438 b 1139 375 1144 385 1142 381 l 1129 397 b 1174 550 1153 444 1168 496 l 1108 550 b 1097 492 1107 531 1103 511 l 1089 464 l 1053 550 l 778 550 l 797 503 l 951 503 l 1146 10 l 1278 10 l 1186 231 l 1190 235 z m 969 40 b 728 -10 893 7 811 -10 b 122 549 411 -10 147 235 l 69 479 b 72 450 69 469 71 460 b 96 335 76 411 85 372 b 96 335 96 335 96 335 b 97 333 97 335 97 333 b 118 276 103 314 111 294 b 124 267 121 274 122 269 b 124 267 124 267 124 267 b 132 249 126 260 129 254 b 132 247 132 247 132 247 b 135 243 133 246 133 244 b 149 217 139 235 144 225 b 149 217 149 217 149 217 b 151 211 150 215 151 214 b 151 211 151 211 151 211 b 171 182 158 201 164 192 b 174 179 172 181 172 179 b 174 179 174 179 174 179 b 186 161 178 172 182 167 b 186 161 186 161 186 161 b 193 151 189 158 190 154 b 193 151 193 151 193 151 b 206 136 197 147 201 142 l 206 136 b 213 128 207 133 210 131 b 213 128 213 128 213 128 b 225 113 217 122 221 118 b 225 113 225 113 225 113 b 233 104 228 110 231 107 b 233 104 233 104 233 104 b 249 89 238 100 243 94 b 249 89 249 89 249 89 b 254 83 250 88 253 86 b 281 60 263 75 272 68 b 282 58 282 60 282 60 b 282 58 282 58 282 58 b 301 43 288 54 294 49 b 301 43 301 43 301 43 b 310 38 304 42 307 39 b 325 25 315 33 319 29 b 325 25 325 25 325 25 b 332 22 328 24 329 24 b 357 6 340 17 349 11 b 361 3 358 4 360 3 b 361 3 361 3 361 3 b 379 -8 368 -1 374 -4 b 379 -8 379 -8 379 -8 b 382 -10 381 -8 382 -8 b 451 -42 404 -21 428 -32 b 460 -44 454 -42 457 -43 b 460 -44 460 -44 460 -44 b 532 -65 482 -53 507 -60 b 532 -65 532 -65 532 -65 b 536 -67 533 -65 535 -67 b 667 -81 578 -76 621 -81 l 667 -81 b 667 -81 667 -81 667 -81 b 697 -81 676 -81 688 -81 b 701 -79 699 -81 700 -81 b 701 -79 701 -79 701 -79 b 713 -79 706 -79 710 -79 b 713 -79 713 -79 713 -79 b 729 -78 718 -79 724 -78 b 739 -76 732 -78 735 -76 b 739 -76 739 -76 739 -76 b 750 -75 742 -76 746 -75 b 760 -74 753 -75 756 -74 b 769 -72 763 -74 767 -72 b 775 -71 772 -71 774 -71 b 785 -69 778 -71 782 -69 b 790 -68 788 -68 789 -68 b 800 -65 793 -67 796 -67 b 811 -62 804 -65 808 -64 b 818 -61 814 -62 815 -62 b 817 -61 817 -61 817 -61 b 819 -61 818 -61 819 -61 b 829 -58 824 -60 826 -60 b 850 -51 836 -57 843 -54 b 857 -50 853 -51 856 -50 b 881 -42 865 -47 874 -44 b 886 -39 882 -40 883 -40 b 913 -28 894 -36 904 -32 b 913 -28 913 -28 913 -28 l 935 -81 l 1232 -81 l 1285 -10 l 990 -10 l 969 40 z m 442 107 l 442 83 b 628 18 499 51 561 29 l 628 107 l 442 107 z m 801 240 b 875 264 826 246 851 254 l 757 551 l 703 479 l 801 240 z m 1090 635 b 728 963 1072 822 915 963 b 426 804 603 963 492 900 b 428 806 426 804 426 806 b 428 806 428 806 428 806 b 435 811 431 808 432 810 b 454 826 442 817 447 821 b 458 829 456 826 457 828 b 465 832 460 831 463 831 b 485 844 471 836 478 842 b 489 847 486 846 488 846 b 489 847 489 847 489 847 b 553 874 508 858 531 867 b 553 874 553 874 553 874 b 560 876 554 875 557 875 b 585 883 568 879 576 881 b 596 885 589 883 592 885 b 621 889 604 886 613 888 b 631 890 624 889 628 890 b 667 892 643 892 654 892 b 1036 569 856 892 1011 751 l 1067 569 l 1072 556 l 1089 556 b 1090 561 1090 557 1090 558 l 1092 569 l 1274 569 l 1317 626 l 1092 626 l 1090 635 z m 728 1049 b 281 646 494 1049 304 872 l 346 646 b 728 982 369 838 532 982 b 1108 646 922 982 1085 838 l 1174 646 b 728 1049 1151 872 960 1049 z m 274 722 b 728 1068 328 921 511 1068 b 1194 646 971 1068 1171 882 l 1314 646 b 946 1144 1294 874 1147 1063 l 779 1144 l 779 1101 l 574 1101 l 574 1144 l 510 1144 b 208 874 381 1092 272 996 l 208 722 l 274 722 z m 119 569 l 304 569 l 347 626 l 119 626 l 121 636 b 185 871 126 721 149 800 b 174 857 181 867 178 861 b 174 857 174 857 174 857 b 164 840 171 851 167 846 b 164 840 164 840 164 840 b 160 836 163 839 161 838 b 160 836 160 836 160 836 b 150 819 157 831 153 825 b 150 819 150 819 150 819 b 133 788 144 808 139 799 b 131 783 132 786 132 785 b 118 756 126 775 122 765 b 118 756 118 756 118 756 b 118 756 118 756 118 756 b 115 751 117 754 117 753 b 115 751 115 751 115 751 b 113 742 115 749 114 746 b 103 717 108 733 106 725 b 101 713 101 715 101 714 b 101 713 101 713 101 713 b 94 693 99 707 97 700 b 93 689 94 692 93 690 b 93 689 93 689 93 689 b 82 644 89 674 85 660 b 81 636 82 642 81 639 b 81 636 81 636 81 636 b 74 592 78 622 75 607 b 74 592 74 592 74 592 b 72 588 72 590 72 589 b 69 556 71 576 69 565 l 121 556 b 121 560 121 557 121 558 l 119 569 z m 272 713 l 197 713 l 197 854 b 142 646 167 790 147 719 l 261 646 b 272 713 263 668 267 690 z "},"q":{"ha":1428,"x_min":0,"x_max":0,"o":"m 349 324 l 349 222 l 449 222 b 349 324 410 251 376 285 z m 583 1111 l 769 1111 l 769 1154 l 919 1154 b 728 1186 858 1175 794 1186 b 535 1154 660 1186 596 1175 l 583 1154 l 583 1111 z m 728 150 b 1025 263 838 150 942 190 l 938 483 l 806 483 l 901 254 l 893 251 b 728 213 840 226 785 213 b 346 550 532 213 369 357 l 281 550 b 728 150 306 325 496 150 z m 1229 292 b 1294 444 1258 340 1281 390 l 1229 444 l 1229 292 z m 261 550 l 142 550 b 196 347 147 478 165 410 l 332 347 b 261 550 293 407 268 476 z m 728 131 b 463 213 629 131 538 161 l 339 213 l 339 338 b 339 338 339 338 339 338 l 200 338 b 432 89 251 233 333 147 l 432 117 l 638 117 l 638 17 b 728 10 667 13 697 10 b 969 63 811 10 893 28 l 979 67 l 1003 10 l 1124 10 l 1032 243 b 728 131 947 171 839 131 z m 1190 235 b 1219 276 1200 249 1210 263 l 1219 454 l 1297 454 b 1314 550 1306 486 1311 518 l 1193 550 b 1144 385 1188 493 1172 438 b 1139 375 1144 385 1142 381 l 1129 397 b 1174 550 1153 444 1168 496 l 1108 550 b 1097 492 1107 531 1103 511 l 1089 464 l 1053 550 l 778 550 l 797 503 l 951 503 l 1146 10 l 1278 10 l 1186 231 l 1190 235 z m 969 40 b 728 -10 893 7 811 -10 b 122 549 411 -10 147 235 l 69 479 b 72 450 69 469 71 460 b 96 335 76 411 85 372 b 96 335 96 335 96 335 b 97 333 97 335 97 333 b 118 276 103 314 111 294 b 124 267 121 274 122 269 b 124 267 124 267 124 267 b 132 249 126 260 129 254 b 132 247 132 247 132 247 b 135 243 133 246 133 244 b 149 217 139 235 144 225 b 149 217 149 217 149 217 b 151 211 150 215 151 214 b 151 211 151 211 151 211 b 171 182 158 201 164 192 b 174 179 172 181 172 179 b 174 179 174 179 174 179 b 186 161 178 172 182 167 b 186 161 186 161 186 161 b 193 151 189 158 190 154 b 193 151 193 151 193 151 b 206 136 197 147 201 142 l 206 136 b 213 128 207 133 210 131 b 213 128 213 128 213 128 b 225 113 217 122 221 118 b 225 113 225 113 225 113 b 233 104 228 110 231 107 b 233 104 233 104 233 104 b 249 89 238 100 243 94 b 249 89 249 89 249 89 b 254 83 250 88 253 86 b 281 60 263 75 272 68 b 282 58 282 60 282 60 b 282 58 282 58 282 58 b 301 43 288 54 294 49 b 301 43 301 43 301 43 b 310 38 304 42 307 39 b 325 25 315 33 319 29 b 325 25 325 25 325 25 b 332 22 328 24 329 24 b 357 6 340 17 349 11 b 361 3 358 4 360 3 b 361 3 361 3 361 3 b 379 -8 368 -1 374 -4 b 379 -8 379 -8 379 -8 b 382 -10 381 -8 382 -8 b 451 -42 404 -21 428 -32 b 460 -44 454 -42 457 -43 b 460 -44 460 -44 460 -44 b 532 -65 482 -53 507 -60 b 532 -65 532 -65 532 -65 b 536 -67 533 -65 535 -67 b 667 -81 578 -76 621 -81 l 667 -81 b 667 -81 667 -81 667 -81 b 697 -81 676 -81 688 -81 b 701 -79 699 -81 700 -81 b 701 -79 701 -79 701 -79 b 713 -79 706 -79 710 -79 b 713 -79 713 -79 713 -79 b 729 -78 718 -79 724 -78 b 739 -76 732 -78 735 -76 b 739 -76 739 -76 739 -76 b 750 -75 742 -76 746 -75 b 760 -74 753 -75 756 -74 b 769 -72 763 -74 767 -72 b 775 -71 772 -71 774 -71 b 785 -69 778 -71 782 -69 b 790 -68 788 -68 789 -68 b 800 -65 793 -67 796 -67 b 811 -62 804 -65 808 -64 b 818 -61 814 -62 815 -62 b 817 -61 817 -61 817 -61 b 819 -61 818 -61 819 -61 b 829 -58 824 -60 826 -60 b 850 -51 836 -57 843 -54 b 857 -50 853 -51 856 -50 b 881 -42 865 -47 874 -44 b 886 -39 882 -40 883 -40 b 913 -28 894 -36 904 -32 b 913 -28 913 -28 913 -28 l 935 -81 l 1232 -81 l 1285 -10 l 990 -10 l 969 40 z m 442 107 l 442 83 b 628 18 499 51 561 29 l 628 107 l 442 107 z m 801 240 b 875 264 826 246 851 254 l 757 551 l 703 479 l 801 240 z m 1090 635 b 728 963 1072 822 915 963 b 426 804 603 963 492 900 b 428 806 426 804 426 806 b 428 806 428 806 428 806 b 435 811 431 808 432 810 b 454 826 442 817 447 821 b 458 829 456 826 457 828 b 465 832 460 831 463 831 b 485 844 471 836 478 842 b 489 847 486 846 488 846 b 489 847 489 847 489 847 b 553 874 508 858 531 867 b 553 874 553 874 553 874 b 560 876 554 875 557 875 b 585 883 568 879 576 881 b 596 885 589 883 592 885 b 621 889 604 886 613 888 b 631 890 624 889 628 890 b 667 892 643 892 654 892 b 1036 569 856 892 1011 751 l 1067 569 l 1072 556 l 1089 556 b 1090 561 1090 557 1090 558 l 1092 569 l 1274 569 l 1317 626 l 1092 626 l 1090 635 z m 728 1049 b 281 646 494 1049 304 872 l 346 646 b 728 982 369 838 532 982 b 1108 646 922 982 1085 838 l 1174 646 b 728 1049 1151 872 960 1049 z m 274 722 b 728 1068 328 921 511 1068 b 1194 646 971 1068 1171 882 l 1314 646 b 946 1144 1294 874 1147 1063 l 779 1144 l 779 1101 l 574 1101 l 574 1144 l 510 1144 b 208 874 381 1092 272 996 l 208 722 l 274 722 z m 119 569 l 304 569 l 347 626 l 119 626 l 121 636 b 185 871 126 721 149 800 b 174 857 181 867 178 861 b 174 857 174 857 174 857 b 164 840 171 851 167 846 b 164 840 164 840 164 840 b 160 836 163 839 161 838 b 160 836 160 836 160 836 b 150 819 157 831 153 825 b 150 819 150 819 150 819 b 133 788 144 808 139 799 b 131 783 132 786 132 785 b 118 756 126 775 122 765 b 118 756 118 756 118 756 b 118 756 118 756 118 756 b 115 751 117 754 117 753 b 115 751 115 751 115 751 b 113 742 115 749 114 746 b 103 717 108 733 106 725 b 101 713 101 715 101 714 b 101 713 101 713 101 713 b 94 693 99 707 97 700 b 93 689 94 692 93 690 b 93 689 93 689 93 689 b 82 644 89 674 85 660 b 81 636 82 642 81 639 b 81 636 81 636 81 636 b 74 592 78 622 75 607 b 74 592 74 592 74 592 b 72 588 72 590 72 589 b 69 556 71 576 69 565 l 121 556 b 121 560 121 557 121 558 l 119 569 z m 272 713 l 197 713 l 197 854 b 142 646 167 790 147 719 l 261 646 b 272 713 263 668 267 690 z "},"L":{"ha":1190,"x_min":0,"x_max":0,"o":"m 174 1086 l 344 1086 l 344 1015 l 394 1015 l 394 1186 l 140 1186 l 140 1015 l 174 1015 z m 121 1183 l 69 1115 l 69 1115 l 69 1115 l 69 -81 l 69 -81 l 343 -81 l 397 -10 l 121 -10 z m 140 117 l 140 10 l 240 10 l 240 117 z m 261 260 l 394 260 l 394 1006 l 335 1006 l 335 1076 l 183 1076 l 183 1006 l 140 1006 l 140 844 l 261 844 z m 242 240 l 242 825 l 140 825 l 140 126 l 250 126 l 250 10 l 394 10 l 394 240 z m 471 160 l 419 92 l 419 -81 l 1025 -81 l 1079 -10 l 471 -10 z m 490 10 l 1076 10 l 1076 163 l 490 163 z m 503 106 l 1072 106 l 1072 96 l 503 96 z "},"l":{"ha":1190,"x_min":0,"x_max":0,"o":"m 174 1086 l 344 1086 l 344 1015 l 394 1015 l 394 1186 l 140 1186 l 140 1015 l 174 1015 z m 121 1183 l 69 1115 l 69 1115 l 69 1115 l 69 -81 l 69 -81 l 343 -81 l 397 -10 l 121 -10 z m 140 117 l 140 10 l 240 10 l 240 117 z m 261 260 l 394 260 l 394 1006 l 335 1006 l 335 1076 l 183 1076 l 183 1006 l 140 1006 l 140 844 l 261 844 z m 242 240 l 242 825 l 140 825 l 140 126 l 250 126 l 250 10 l 394 10 l 394 240 z m 471 160 l 419 92 l 419 -81 l 1025 -81 l 1079 -10 l 471 -10 z m 490 10 l 1076 10 l 1076 163 l 490 163 z m 503 106 l 1072 106 l 1072 96 l 503 96 z "},"X":{"ha":1192,"x_min":0,"x_max":0,"o":"m 833 449 l 797 517 l 797 449 l 833 449 z m 661 518 l 811 242 l 865 242 l 865 171 l 933 171 l 933 242 l 946 242 l 839 439 l 788 439 l 788 535 l 763 581 l 661 581 l 661 518 z m 832 897 l 832 826 l 742 826 l 618 597 l 651 536 l 651 590 l 758 590 l 754 597 l 756 603 l 900 869 l 900 897 l 832 897 z m 747 836 l 822 836 l 822 907 l 910 907 l 910 888 l 997 1049 l 863 1049 l 747 836 z m 1003 1058 l 1071 1186 l 936 1186 l 867 1058 l 1003 1058 z m 914 1186 l 782 1186 l 610 865 l 436 1186 l 301 1186 l 607 618 l 914 1186 z m 738 1144 l 715 1115 l 606 913 l 610 907 l 738 1144 z m 236 1021 l 367 779 l 367 1021 l 236 1021 z m 279 1186 l 147 1186 l 231 1031 l 363 1031 l 279 1186 z m 442 597 l 124 1188 l 69 1115 l 393 517 l 69 -81 l 381 -81 l 435 -10 l 114 -10 l 442 597 z m 610 289 l 563 203 l 715 -81 l 1026 -81 l 1081 -10 l 771 -10 l 610 289 z m 301 10 l 436 10 l 610 331 l 782 10 l 914 10 l 607 578 l 301 10 z m 281 100 l 281 171 l 367 171 l 574 556 l 442 556 l 211 128 l 211 100 l 281 100 z m 290 161 l 290 90 l 201 90 l 201 110 l 147 10 l 279 10 l 361 161 l 290 161 z m 596 597 l 376 1004 l 376 761 l 465 597 l 463 593 l 447 565 l 579 565 l 596 597 z m 943 232 l 943 161 l 856 161 l 856 232 l 817 232 l 936 10 l 1071 10 l 951 232 l 943 232 z "},"x":{"ha":1192,"x_min":0,"x_max":0,"o":"m 833 449 l 797 517 l 797 449 l 833 449 z m 661 518 l 811 242 l 865 242 l 865 171 l 933 171 l 933 242 l 946 242 l 839 439 l 788 439 l 788 535 l 763 581 l 661 581 l 661 518 z m 832 897 l 832 826 l 742 826 l 618 597 l 651 536 l 651 590 l 758 590 l 754 597 l 756 603 l 900 869 l 900 897 l 832 897 z m 747 836 l 822 836 l 822 907 l 910 907 l 910 888 l 997 1049 l 863 1049 l 747 836 z m 1003 1058 l 1071 1186 l 936 1186 l 867 1058 l 1003 1058 z m 914 1186 l 782 1186 l 610 865 l 436 1186 l 301 1186 l 607 618 l 914 1186 z m 738 1144 l 715 1115 l 606 913 l 610 907 l 738 1144 z m 236 1021 l 367 779 l 367 1021 l 236 1021 z m 279 1186 l 147 1186 l 231 1031 l 363 1031 l 279 1186 z m 442 597 l 124 1188 l 69 1115 l 393 517 l 69 -81 l 381 -81 l 435 -10 l 114 -10 l 442 597 z m 610 289 l 563 203 l 715 -81 l 1026 -81 l 1081 -10 l 771 -10 l 610 289 z m 301 10 l 436 10 l 610 331 l 782 10 l 914 10 l 607 578 l 301 10 z m 281 100 l 281 171 l 367 171 l 574 556 l 442 556 l 211 128 l 211 100 l 281 100 z m 290 161 l 290 90 l 201 90 l 201 110 l 147 10 l 279 10 l 361 161 l 290 161 z m 596 597 l 376 1004 l 376 761 l 465 597 l 463 593 l 447 565 l 579 565 l 596 597 z m 943 232 l 943 161 l 856 161 l 856 232 l 817 232 l 936 10 l 1071 10 l 951 232 l 943 232 z "},"Z":{"ha":1207,"x_min":0,"x_max":0,"o":"m 842 214 l 842 264 l 456 264 l 456 214 l 842 214 z m 1046 856 l 1029 840 l 1043 840 l 1096 911 l 121 911 l 121 1182 l 69 1114 l 69 840 l 749 840 l 764 856 l 1046 856 z m 793 836 l 772 836 l 140 268 l 140 179 l 793 764 l 793 836 z m 994 836 l 813 836 l 813 756 l 140 153 l 140 117 l 890 117 l 890 218 l 1021 218 l 1021 117 l 1094 117 l 1094 264 l 853 264 l 853 204 l 444 204 l 444 264 l 363 264 l 994 836 z m 1001 199 l 911 199 l 911 97 l 140 97 l 140 10 l 1094 10 l 1094 97 l 1001 97 l 1001 199 z m 988 803 l 414 283 l 426 283 l 958 765 l 988 803 z m 340 1000 l 340 1117 l 286 1117 l 286 1185 l 140 1185 l 140 931 l 286 931 l 286 1000 l 340 1000 z m 121 261 l 69 193 l 69 193 l 69 193 l 69 193 l 69 192 l 69 -81 l 1043 -81 l 1096 -10 l 121 -10 l 121 261 z m 1094 1088 l 1094 1185 l 296 1185 l 296 1126 l 350 1126 l 350 990 l 296 990 l 296 931 l 489 931 l 489 1088 l 1094 1088 z m 508 1068 l 508 931 l 1094 931 l 1094 1068 l 508 1068 z "},"z":{"ha":1207,"x_min":0,"x_max":0,"o":"m 842 214 l 842 264 l 456 264 l 456 214 l 842 214 z m 1046 856 l 1029 840 l 1043 840 l 1096 911 l 121 911 l 121 1182 l 69 1114 l 69 840 l 749 840 l 764 856 l 1046 856 z m 793 836 l 772 836 l 140 268 l 140 179 l 793 764 l 793 836 z m 994 836 l 813 836 l 813 756 l 140 153 l 140 117 l 890 117 l 890 218 l 1021 218 l 1021 117 l 1094 117 l 1094 264 l 853 264 l 853 204 l 444 204 l 444 264 l 363 264 l 994 836 z m 1001 199 l 911 199 l 911 97 l 140 97 l 140 10 l 1094 10 l 1094 97 l 1001 97 l 1001 199 z m 988 803 l 414 283 l 426 283 l 958 765 l 988 803 z m 340 1000 l 340 1117 l 286 1117 l 286 1185 l 140 1185 l 140 931 l 286 931 l 286 1000 l 340 1000 z m 121 261 l 69 193 l 69 193 l 69 193 l 69 193 l 69 192 l 69 -81 l 1043 -81 l 1096 -10 l 121 -10 l 121 261 z m 1094 1088 l 1094 1185 l 296 1185 l 296 1126 l 350 1126 l 350 990 l 296 990 l 296 931 l 489 931 l 489 1088 l 1094 1088 z m 508 1068 l 508 931 l 1094 931 l 1094 1068 l 508 1068 z "},"W":{"ha":2214,"x_min":0,"x_max":0,"o":"m 1001 589 l 1001 551 l 1153 551 l 1153 624 l 1232 624 l 1124 883 l 1001 589 z m 1267 1082 l 1206 1082 l 1135 908 l 1471 97 l 1924 1186 l 1826 1186 l 1471 331 l 1261 838 l 1307 947 l 1267 947 l 1267 1082 z m 1797 1165 l 1760 1115 l 1463 403 l 1471 382 l 1797 1165 z m 1276 1092 l 1276 957 l 1311 957 l 1407 1186 l 1249 1186 l 1210 1092 l 1276 1092 z m 329 931 l 410 931 l 386 988 l 503 988 l 454 1104 l 367 1104 l 367 1061 l 276 1061 l 276 1104 l 179 1104 l 307 797 l 329 797 l 329 931 z m 1639 450 l 1669 450 l 1669 340 l 1743 340 l 1743 450 l 1796 450 l 1889 672 l 1889 1050 l 1639 450 z m 1236 614 l 1163 614 l 1163 542 l 992 542 l 992 565 l 775 46 l 715 193 l 715 10 l 918 10 l 1124 506 l 1269 154 l 1426 154 l 1236 614 z m 1753 346 l 1792 440 l 1753 440 l 1753 346 z m 540 614 l 467 614 l 467 542 l 413 542 l 536 244 l 694 244 l 540 614 z m 1432 142 l 1431 144 l 1274 144 l 1329 10 l 1432 10 l 1432 142 z m 1660 440 l 1635 440 l 1471 46 l 1442 118 l 1442 10 l 1614 10 l 1747 331 l 1660 331 l 1660 440 z m 2063 1092 l 2103 1186 l 1944 1186 l 1906 1092 l 2063 1092 z m 1899 1074 l 1899 696 l 2058 1082 l 1901 1082 l 1899 1074 z m 1124 454 l 1082 354 l 1263 -81 l 1263 -81 l 1558 -81 l 1558 -81 l 1558 -81 l 1613 -10 l 1317 -10 l 1124 454 z m 697 235 l 540 235 l 633 10 l 706 10 l 706 217 l 697 235 z m 457 624 l 536 624 l 413 921 l 339 921 l 339 786 l 311 786 l 408 551 l 457 551 l 457 624 z m 618 -4 l 124 1186 l 69 1115 l 567 -81 l 567 -81 l 567 -81 l 863 -81 l 863 -81 l 863 -81 l 863 -81 l 917 -10 l 621 -10 l 618 -4 z m 286 1071 l 357 1071 l 357 1114 l 450 1114 l 421 1186 l 144 1186 l 175 1114 l 286 1114 l 286 1071 z m 776 97 l 1113 908 l 1064 1026 l 907 1026 l 986 838 l 776 331 l 511 968 l 415 968 l 776 97 z m 1124 935 l 1228 1186 l 840 1186 l 899 1046 l 1078 1046 l 1124 935 z m 965 838 l 819 1186 l 765 1115 l 914 757 l 767 403 l 776 382 l 965 838 z "},"w":{"ha":2214,"x_min":0,"x_max":0,"o":"m 1001 589 l 1001 551 l 1153 551 l 1153 624 l 1232 624 l 1124 883 l 1001 589 z m 1267 1082 l 1206 1082 l 1135 908 l 1471 97 l 1924 1186 l 1826 1186 l 1471 331 l 1261 838 l 1307 947 l 1267 947 l 1267 1082 z m 1797 1165 l 1760 1115 l 1463 403 l 1471 382 l 1797 1165 z m 1276 1092 l 1276 957 l 1311 957 l 1407 1186 l 1249 1186 l 1210 1092 l 1276 1092 z m 329 931 l 410 931 l 386 988 l 503 988 l 454 1104 l 367 1104 l 367 1061 l 276 1061 l 276 1104 l 179 1104 l 307 797 l 329 797 l 329 931 z m 1639 450 l 1669 450 l 1669 340 l 1743 340 l 1743 450 l 1796 450 l 1889 672 l 1889 1050 l 1639 450 z m 1236 614 l 1163 614 l 1163 542 l 992 542 l 992 565 l 775 46 l 715 193 l 715 10 l 918 10 l 1124 506 l 1269 154 l 1426 154 l 1236 614 z m 1753 346 l 1792 440 l 1753 440 l 1753 346 z m 540 614 l 467 614 l 467 542 l 413 542 l 536 244 l 694 244 l 540 614 z m 1432 142 l 1431 144 l 1274 144 l 1329 10 l 1432 10 l 1432 142 z m 1660 440 l 1635 440 l 1471 46 l 1442 118 l 1442 10 l 1614 10 l 1747 331 l 1660 331 l 1660 440 z m 2063 1092 l 2103 1186 l 1944 1186 l 1906 1092 l 2063 1092 z m 1899 1074 l 1899 696 l 2058 1082 l 1901 1082 l 1899 1074 z m 1124 454 l 1082 354 l 1263 -81 l 1263 -81 l 1558 -81 l 1558 -81 l 1558 -81 l 1613 -10 l 1317 -10 l 1124 454 z m 697 235 l 540 235 l 633 10 l 706 10 l 706 217 l 697 235 z m 457 624 l 536 624 l 413 921 l 339 921 l 339 786 l 311 786 l 408 551 l 457 551 l 457 624 z m 618 -4 l 124 1186 l 69 1115 l 567 -81 l 567 -81 l 567 -81 l 863 -81 l 863 -81 l 863 -81 l 863 -81 l 917 -10 l 621 -10 l 618 -4 z m 286 1071 l 357 1071 l 357 1114 l 450 1114 l 421 1186 l 144 1186 l 175 1114 l 286 1114 l 286 1071 z m 776 97 l 1113 908 l 1064 1026 l 907 1026 l 986 838 l 776 331 l 511 968 l 415 968 l 776 97 z m 1124 935 l 1228 1186 l 840 1186 l 899 1046 l 1078 1046 l 1124 935 z m 965 838 l 819 1186 l 765 1115 l 914 757 l 767 403 l 776 382 l 965 838 z "},"G":{"ha":1425,"x_min":0,"x_max":0,"o":"m 964 1101 l 964 1136 b 728 1186 890 1168 811 1186 b 486 1133 642 1186 560 1167 l 486 1101 l 964 1101 z m 799 28 l 654 28 l 654 65 l 478 65 b 728 10 554 29 639 10 l 731 10 b 767 11 743 10 754 10 b 778 11 771 11 774 11 b 815 17 790 13 803 14 l 824 18 b 854 24 833 19 844 21 l 864 25 b 900 35 876 29 888 32 l 908 39 b 939 49 919 42 929 44 l 946 51 b 976 65 956 56 967 60 l 799 65 l 799 28 z m 969 325 l 974 329 b 993 349 981 335 988 342 b 999 354 994 350 997 351 b 1018 378 1006 361 1011 369 l 801 378 l 801 547 l 750 479 l 750 307 l 947 307 l 951 310 b 969 325 957 314 964 319 z m 119 569 l 304 569 l 347 626 l 119 626 l 121 636 b 185 871 126 721 149 800 b 185 871 185 871 185 871 b 178 861 182 868 179 864 b 178 861 178 861 178 861 b 160 835 171 853 165 844 b 160 835 160 835 160 835 b 154 825 158 832 156 828 b 147 814 151 821 150 818 b 147 814 147 814 147 814 b 147 814 147 814 147 814 b 133 788 142 806 138 796 b 131 783 132 786 132 785 b 115 751 125 772 121 763 b 115 751 115 751 115 751 b 110 736 114 746 113 742 b 110 736 110 736 110 736 b 106 726 108 733 107 729 b 106 726 106 726 106 726 b 101 713 104 722 103 718 b 101 713 101 713 101 713 b 94 692 99 706 97 699 b 93 688 94 690 93 689 b 93 688 93 688 93 688 b 89 675 92 683 90 679 b 89 675 89 675 89 675 b 86 663 89 671 88 667 b 86 663 86 663 86 663 b 83 649 85 658 83 653 b 83 649 83 649 83 649 b 81 636 82 644 81 640 b 81 636 81 636 81 636 b 78 621 79 631 78 626 b 78 621 78 621 78 621 b 75 610 76 617 76 614 b 75 610 75 610 75 610 b 74 592 75 604 74 597 b 74 592 74 592 74 592 b 72 582 72 589 72 586 b 72 582 72 582 72 582 b 69 554 71 574 69 564 b 69 554 69 554 69 554 l 69 554 l 69 554 l 121 554 b 121 560 121 557 121 558 l 119 569 z m 736 1044 b 276 646 500 1044 306 871 l 346 646 b 728 982 369 838 532 982 b 1029 836 846 982 956 929 l 1124 836 b 736 1044 1039 965 894 1044 z m 833 238 l 833 238 l 833 238 l 833 238 z m 1017 821 b 728 963 946 911 842 963 b 426 804 603 963 492 900 b 428 806 426 804 426 806 b 428 806 428 806 428 806 b 435 811 431 808 432 810 b 454 826 442 817 447 821 b 458 828 456 826 457 828 b 465 832 460 829 463 831 b 485 844 471 836 478 840 b 489 847 486 846 488 846 b 489 847 489 847 489 847 b 553 874 508 858 531 867 b 553 874 553 874 553 874 b 560 876 554 875 557 875 b 585 883 568 879 576 881 b 596 885 589 883 592 885 b 621 889 604 886 613 888 b 631 890 624 889 628 890 b 667 892 643 892 654 892 b 963 746 788 892 894 835 l 1218 746 l 1272 817 l 1019 817 l 1017 821 z m 1107 124 l 1103 121 b 1072 97 1093 113 1083 104 l 1064 92 b 1032 72 1054 85 1043 78 l 1029 71 b 997 53 1019 64 1008 58 l 988 49 b 953 33 976 43 965 38 l 946 31 b 915 19 936 26 925 24 l 906 17 b 869 7 893 13 882 10 l 858 4 b 826 -1 849 1 838 0 l 818 -3 b 779 -8 806 -6 793 -7 b 768 -8 775 -8 772 -8 b 731 -10 756 -10 743 -10 l 728 -10 b 122 549 411 -10 147 235 l 69 479 b 69 479 69 479 69 479 l 69 479 b 667 -81 89 167 349 -81 b 669 -81 667 -81 668 -81 b 674 -81 671 -81 672 -81 b 674 -81 674 -81 674 -81 b 711 -79 686 -81 699 -81 b 718 -79 713 -79 715 -79 b 726 -78 721 -78 724 -78 b 750 -75 735 -76 742 -76 b 750 -75 750 -75 750 -75 b 756 -74 751 -75 754 -75 b 764 -72 758 -74 761 -74 b 771 -72 765 -72 768 -72 b 790 -68 776 -71 783 -69 b 790 -68 790 -68 790 -68 b 796 -67 792 -68 793 -67 b 806 -64 799 -65 803 -65 b 811 -62 807 -64 810 -64 b 818 -61 814 -62 815 -62 b 817 -61 817 -61 817 -61 b 842 -54 825 -60 833 -57 b 851 -51 844 -54 847 -53 b 882 -40 861 -49 871 -44 b 889 -37 883 -40 886 -39 b 922 -24 900 -33 911 -28 b 932 -18 925 -22 929 -21 b 964 -1 943 -14 953 -8 b 965 0 964 -1 965 -1 b 997 19 976 6 988 13 b 1006 25 1000 21 1003 24 b 1036 47 1015 32 1026 39 b 1040 50 1038 49 1039 50 b 1067 74 1049 57 1058 65 b 1072 78 1068 75 1069 76 b 1099 106 1082 86 1090 96 b 1104 110 1100 107 1101 108 b 1128 136 1111 118 1119 128 b 1131 140 1128 138 1129 139 b 1138 149 1132 143 1135 146 l 1135 146 b 1107 124 1125 139 1117 131 z m 1157 197 b 1181 224 1165 206 1174 214 l 1183 226 b 1207 257 1192 238 1200 247 l 1211 263 b 1251 331 1225 285 1239 307 l 1254 336 b 1271 372 1260 349 1265 361 b 1303 478 1285 407 1294 442 l 1208 478 l 1208 550 l 894 550 l 894 474 l 1196 474 l 1193 463 b 1149 340 1186 419 1172 378 b 736 110 1065 200 903 110 b 254 550 482 110 274 304 l 142 550 b 458 75 158 342 283 165 l 664 75 l 664 38 l 789 38 l 789 75 l 996 75 b 1019 88 1004 79 1013 83 l 1026 81 l 1022 89 b 1054 108 1033 94 1043 101 l 1061 114 b 1092 136 1071 121 1082 128 l 1094 139 b 1121 161 1104 146 1113 153 l 1126 165 b 1153 192 1136 175 1144 183 l 1157 197 z m 736 129 b 1132 350 896 129 1051 217 b 1172 454 1151 382 1165 418 l 875 454 l 875 550 l 821 550 l 821 397 l 1056 397 l 1044 382 b 1014 342 1035 367 1024 353 b 1007 335 1011 339 1010 338 b 988 314 1001 328 994 321 l 983 311 b 963 294 976 304 969 299 l 957 290 b 933 274 950 283 942 278 l 929 271 b 901 254 919 264 910 260 b 871 242 890 250 881 246 l 865 239 b 836 229 856 235 846 232 l 833 228 b 803 221 822 225 813 222 l 799 219 b 767 215 789 218 778 217 l 761 215 b 728 213 749 214 738 213 b 346 550 532 213 369 357 l 274 550 b 736 129 293 315 493 129 z m 211 740 l 157 740 b 142 646 149 710 143 678 l 211 646 l 211 740 z m 1304 488 b 1314 550 1308 508 1311 529 l 1218 550 l 1218 488 l 1304 488 z m 221 646 l 257 646 b 736 1064 286 881 489 1064 b 1146 836 906 1064 1060 976 l 1265 836 b 974 1132 1206 969 1101 1074 l 974 1092 l 476 1092 l 476 1129 b 160 750 322 1056 204 918 l 221 750 l 221 646 z "},"g":{"ha":1425,"x_min":0,"x_max":0,"o":"m 964 1101 l 964 1136 b 728 1186 890 1168 811 1186 b 486 1133 642 1186 560 1167 l 486 1101 l 964 1101 z m 799 28 l 654 28 l 654 65 l 478 65 b 728 10 554 29 639 10 l 731 10 b 767 11 743 10 754 10 b 778 11 771 11 774 11 b 815 17 790 13 803 14 l 824 18 b 854 24 833 19 844 21 l 864 25 b 900 35 876 29 888 32 l 908 39 b 939 49 919 42 929 44 l 946 51 b 976 65 956 56 967 60 l 799 65 l 799 28 z m 969 325 l 974 329 b 993 349 981 335 988 342 b 999 354 994 350 997 351 b 1018 378 1006 361 1011 369 l 801 378 l 801 547 l 750 479 l 750 307 l 947 307 l 951 310 b 969 325 957 314 964 319 z m 119 569 l 304 569 l 347 626 l 119 626 l 121 636 b 185 871 126 721 149 800 b 185 871 185 871 185 871 b 178 861 182 868 179 864 b 178 861 178 861 178 861 b 160 835 171 853 165 844 b 160 835 160 835 160 835 b 154 825 158 832 156 828 b 147 814 151 821 150 818 b 147 814 147 814 147 814 b 147 814 147 814 147 814 b 133 788 142 806 138 796 b 131 783 132 786 132 785 b 115 751 125 772 121 763 b 115 751 115 751 115 751 b 110 736 114 746 113 742 b 110 736 110 736 110 736 b 106 726 108 733 107 729 b 106 726 106 726 106 726 b 101 713 104 722 103 718 b 101 713 101 713 101 713 b 94 692 99 706 97 699 b 93 688 94 690 93 689 b 93 688 93 688 93 688 b 89 675 92 683 90 679 b 89 675 89 675 89 675 b 86 663 89 671 88 667 b 86 663 86 663 86 663 b 83 649 85 658 83 653 b 83 649 83 649 83 649 b 81 636 82 644 81 640 b 81 636 81 636 81 636 b 78 621 79 631 78 626 b 78 621 78 621 78 621 b 75 610 76 617 76 614 b 75 610 75 610 75 610 b 74 592 75 604 74 597 b 74 592 74 592 74 592 b 72 582 72 589 72 586 b 72 582 72 582 72 582 b 69 554 71 574 69 564 b 69 554 69 554 69 554 l 69 554 l 69 554 l 121 554 b 121 560 121 557 121 558 l 119 569 z m 736 1044 b 276 646 500 1044 306 871 l 346 646 b 728 982 369 838 532 982 b 1029 836 846 982 956 929 l 1124 836 b 736 1044 1039 965 894 1044 z m 833 238 l 833 238 l 833 238 l 833 238 z m 1017 821 b 728 963 946 911 842 963 b 426 804 603 963 492 900 b 428 806 426 804 426 806 b 428 806 428 806 428 806 b 435 811 431 808 432 810 b 454 826 442 817 447 821 b 458 828 456 826 457 828 b 465 832 460 829 463 831 b 485 844 471 836 478 840 b 489 847 486 846 488 846 b 489 847 489 847 489 847 b 553 874 508 858 531 867 b 553 874 553 874 553 874 b 560 876 554 875 557 875 b 585 883 568 879 576 881 b 596 885 589 883 592 885 b 621 889 604 886 613 888 b 631 890 624 889 628 890 b 667 892 643 892 654 892 b 963 746 788 892 894 835 l 1218 746 l 1272 817 l 1019 817 l 1017 821 z m 1107 124 l 1103 121 b 1072 97 1093 113 1083 104 l 1064 92 b 1032 72 1054 85 1043 78 l 1029 71 b 997 53 1019 64 1008 58 l 988 49 b 953 33 976 43 965 38 l 946 31 b 915 19 936 26 925 24 l 906 17 b 869 7 893 13 882 10 l 858 4 b 826 -1 849 1 838 0 l 818 -3 b 779 -8 806 -6 793 -7 b 768 -8 775 -8 772 -8 b 731 -10 756 -10 743 -10 l 728 -10 b 122 549 411 -10 147 235 l 69 479 b 69 479 69 479 69 479 l 69 479 b 667 -81 89 167 349 -81 b 669 -81 667 -81 668 -81 b 674 -81 671 -81 672 -81 b 674 -81 674 -81 674 -81 b 711 -79 686 -81 699 -81 b 718 -79 713 -79 715 -79 b 726 -78 721 -78 724 -78 b 750 -75 735 -76 742 -76 b 750 -75 750 -75 750 -75 b 756 -74 751 -75 754 -75 b 764 -72 758 -74 761 -74 b 771 -72 765 -72 768 -72 b 790 -68 776 -71 783 -69 b 790 -68 790 -68 790 -68 b 796 -67 792 -68 793 -67 b 806 -64 799 -65 803 -65 b 811 -62 807 -64 810 -64 b 818 -61 814 -62 815 -62 b 817 -61 817 -61 817 -61 b 842 -54 825 -60 833 -57 b 851 -51 844 -54 847 -53 b 882 -40 861 -49 871 -44 b 889 -37 883 -40 886 -39 b 922 -24 900 -33 911 -28 b 932 -18 925 -22 929 -21 b 964 -1 943 -14 953 -8 b 965 0 964 -1 965 -1 b 997 19 976 6 988 13 b 1006 25 1000 21 1003 24 b 1036 47 1015 32 1026 39 b 1040 50 1038 49 1039 50 b 1067 74 1049 57 1058 65 b 1072 78 1068 75 1069 76 b 1099 106 1082 86 1090 96 b 1104 110 1100 107 1101 108 b 1128 136 1111 118 1119 128 b 1131 140 1128 138 1129 139 b 1138 149 1132 143 1135 146 l 1135 146 b 1107 124 1125 139 1117 131 z m 1157 197 b 1181 224 1165 206 1174 214 l 1183 226 b 1207 257 1192 238 1200 247 l 1211 263 b 1251 331 1225 285 1239 307 l 1254 336 b 1271 372 1260 349 1265 361 b 1303 478 1285 407 1294 442 l 1208 478 l 1208 550 l 894 550 l 894 474 l 1196 474 l 1193 463 b 1149 340 1186 419 1172 378 b 736 110 1065 200 903 110 b 254 550 482 110 274 304 l 142 550 b 458 75 158 342 283 165 l 664 75 l 664 38 l 789 38 l 789 75 l 996 75 b 1019 88 1004 79 1013 83 l 1026 81 l 1022 89 b 1054 108 1033 94 1043 101 l 1061 114 b 1092 136 1071 121 1082 128 l 1094 139 b 1121 161 1104 146 1113 153 l 1126 165 b 1153 192 1136 175 1144 183 l 1157 197 z m 736 129 b 1132 350 896 129 1051 217 b 1172 454 1151 382 1165 418 l 875 454 l 875 550 l 821 550 l 821 397 l 1056 397 l 1044 382 b 1014 342 1035 367 1024 353 b 1007 335 1011 339 1010 338 b 988 314 1001 328 994 321 l 983 311 b 963 294 976 304 969 299 l 957 290 b 933 274 950 283 942 278 l 929 271 b 901 254 919 264 910 260 b 871 242 890 250 881 246 l 865 239 b 836 229 856 235 846 232 l 833 228 b 803 221 822 225 813 222 l 799 219 b 767 215 789 218 778 217 l 761 215 b 728 213 749 214 738 213 b 346 550 532 213 369 357 l 274 550 b 736 129 293 315 493 129 z m 211 740 l 157 740 b 142 646 149 710 143 678 l 211 646 l 211 740 z m 1304 488 b 1314 550 1308 508 1311 529 l 1218 550 l 1218 488 l 1304 488 z m 221 646 l 257 646 b 736 1064 286 881 489 1064 b 1146 836 906 1064 1060 976 l 1265 836 b 974 1132 1206 969 1101 1074 l 974 1092 l 476 1092 l 476 1129 b 160 750 322 1056 204 918 l 221 750 l 221 646 z "},"V":{"ha":1518,"x_min":0,"x_max":0,"o":"m 1267 1082 l 1207 1082 l 1025 647 l 1182 647 l 1307 947 l 1267 947 l 1267 1082 z m 1276 1092 l 1276 957 l 1311 957 l 1407 1186 l 1250 1186 l 1210 1092 l 1276 1092 z m 1029 279 l 1178 638 l 1029 638 l 1029 279 z m 776 46 l 715 192 l 715 10 l 918 10 l 1019 256 l 1019 633 l 776 46 z m 457 624 l 536 624 l 397 957 l 240 957 l 408 551 l 457 551 l 457 624 z m 715 244 l 715 244 l 715 243 l 776 97 l 1228 1186 l 1131 1186 l 776 331 l 461 1088 l 186 1088 l 232 976 l 410 976 l 715 244 z m 540 614 l 467 614 l 467 542 l 413 542 l 536 244 l 693 244 l 540 614 z m 706 215 l 697 233 l 540 233 l 633 10 l 706 10 l 706 215 z m 618 -4 l 124 1186 l 69 1115 l 567 -81 l 567 -81 l 863 -81 l 863 -81 l 863 -81 l 917 -10 l 621 -10 l 618 -4 z m 1101 1165 l 1064 1115 l 767 403 l 776 382 l 1101 1165 z m 421 1186 l 144 1186 l 182 1097 l 457 1097 l 421 1186 z "},"v":{"ha":1518,"x_min":0,"x_max":0,"o":"m 1267 1082 l 1207 1082 l 1025 647 l 1182 647 l 1307 947 l 1267 947 l 1267 1082 z m 1276 1092 l 1276 957 l 1311 957 l 1407 1186 l 1250 1186 l 1210 1092 l 1276 1092 z m 1029 279 l 1178 638 l 1029 638 l 1029 279 z m 776 46 l 715 192 l 715 10 l 918 10 l 1019 256 l 1019 633 l 776 46 z m 457 624 l 536 624 l 397 957 l 240 957 l 408 551 l 457 551 l 457 624 z m 715 244 l 715 244 l 715 243 l 776 97 l 1228 1186 l 1131 1186 l 776 331 l 461 1088 l 186 1088 l 232 976 l 410 976 l 715 244 z m 540 614 l 467 614 l 467 542 l 413 542 l 536 244 l 693 244 l 540 614 z m 706 215 l 697 233 l 540 233 l 633 10 l 706 10 l 706 215 z m 618 -4 l 124 1186 l 69 1115 l 567 -81 l 567 -81 l 863 -81 l 863 -81 l 863 -81 l 917 -10 l 621 -10 l 618 -4 z m 1101 1165 l 1064 1115 l 767 403 l 776 382 l 1101 1165 z m 421 1186 l 144 1186 l 182 1097 l 457 1097 l 421 1186 z "},"A":{"ha":1525,"x_min":0,"x_max":0,"o":"m 958 710 l 1115 710 l 957 1089 l 957 711 l 958 710 z m 704 979 l 621 979 l 621 1051 l 578 1051 l 511 890 l 511 513 l 704 979 z m 631 989 l 708 989 l 775 1150 l 947 735 l 947 1113 l 918 1186 l 633 1186 l 582 1061 l 631 1061 l 631 989 z m 604 1165 l 567 1115 l 567 1115 l 69 -81 l 365 -81 l 419 -10 l 115 -10 l 604 1165 z m 500 485 l 343 485 l 203 150 l 360 150 l 500 485 z m 1118 -10 l 776 814 l 733 713 l 1064 -81 l 1360 -81 l 1414 -10 l 1118 -10 z m 357 140 l 200 140 l 144 10 l 303 10 l 357 140 z m 1188 157 l 1246 157 l 1246 396 l 1119 700 l 963 700 l 1188 157 z m 501 867 l 347 494 l 501 494 l 501 867 z m 775 1099 l 324 10 l 421 10 l 776 864 l 1093 101 l 1190 101 l 775 1099 z m 1192 147 l 1219 82 l 1101 82 l 1131 10 l 1407 10 l 1256 372 l 1256 147 l 1192 147 z "},"a":{"ha":1525,"x_min":0,"x_max":0,"o":"m 958 710 l 1115 710 l 957 1089 l 957 711 l 958 710 z m 704 979 l 621 979 l 621 1051 l 578 1051 l 511 890 l 511 513 l 704 979 z m 631 989 l 708 989 l 775 1150 l 947 735 l 947 1113 l 918 1186 l 633 1186 l 582 1061 l 631 1061 l 631 989 z m 604 1165 l 567 1115 l 567 1115 l 69 -81 l 365 -81 l 419 -10 l 115 -10 l 604 1165 z m 500 485 l 343 485 l 203 150 l 360 150 l 500 485 z m 1118 -10 l 776 814 l 733 713 l 1064 -81 l 1360 -81 l 1414 -10 l 1118 -10 z m 357 140 l 200 140 l 144 10 l 303 10 l 357 140 z m 1188 157 l 1246 157 l 1246 396 l 1119 700 l 963 700 l 1188 157 z m 501 867 l 347 494 l 501 494 l 501 867 z m 775 1099 l 324 10 l 421 10 l 776 864 l 1093 101 l 1190 101 l 775 1099 z m 1192 147 l 1219 82 l 1101 82 l 1131 10 l 1407 10 l 1256 372 l 1256 147 l 1192 147 z "},"R":{"ha":1403,"x_min":0,"x_max":0,"o":"m 956 763 b 1103 919 1038 763 1103 833 b 931 1096 1103 1038 1046 1096 l 140 1096 l 140 1033 l 939 1033 b 1043 929 996 1033 1043 986 b 939 824 1043 871 996 824 l 453 824 l 453 763 l 956 763 z m 501 574 l 1007 68 l 1217 68 l 983 303 l 871 303 l 618 569 l 717 569 l 614 671 l 947 671 b 1196 921 1085 671 1196 783 l 1196 936 b 947 1186 1196 1074 1085 1186 l 140 1186 l 140 1115 l 931 1115 b 1122 919 1057 1115 1122 1049 b 956 743 1122 822 1047 743 l 433 743 l 433 824 l 304 824 l 304 574 l 501 574 z m 875 313 l 974 313 l 726 560 l 640 560 l 875 313 z m 1024 929 b 939 1014 1024 975 986 1014 l 121 1014 l 121 1183 l 69 1115 l 69 943 l 806 943 l 878 943 b 972 850 929 943 971 901 b 1024 929 1003 864 1024 893 z m 661 651 l 732 581 l 886 581 b 1106 704 979 581 1061 631 b 947 651 1061 671 1007 651 l 661 651 z m 121 821 l 69 753 l 69 753 l 69 -81 l 343 -81 l 397 -10 l 121 -10 l 121 821 z m 321 379 l 321 307 l 201 307 l 201 379 l 140 379 l 140 164 l 244 164 l 244 10 l 394 10 l 394 379 l 321 379 z m 211 317 l 311 317 l 311 389 l 394 389 l 394 531 l 917 10 l 1275 10 l 1236 49 l 999 49 l 493 554 l 285 554 l 285 824 l 140 824 l 140 389 l 211 389 l 211 317 z m 140 154 l 140 10 l 235 10 l 235 154 l 140 154 z m 908 -10 l 414 483 l 414 356 l 851 -81 l 1238 -81 l 1292 -10 l 908 -10 z "},"r":{"ha":1403,"x_min":0,"x_max":0,"o":"m 956 763 b 1103 919 1038 763 1103 833 b 931 1096 1103 1038 1046 1096 l 140 1096 l 140 1033 l 939 1033 b 1043 929 996 1033 1043 986 b 939 824 1043 871 996 824 l 453 824 l 453 763 l 956 763 z m 501 574 l 1007 68 l 1217 68 l 983 303 l 871 303 l 618 569 l 717 569 l 614 671 l 947 671 b 1196 921 1085 671 1196 783 l 1196 936 b 947 1186 1196 1074 1085 1186 l 140 1186 l 140 1115 l 931 1115 b 1122 919 1057 1115 1122 1049 b 956 743 1122 822 1047 743 l 433 743 l 433 824 l 304 824 l 304 574 l 501 574 z m 875 313 l 974 313 l 726 560 l 640 560 l 875 313 z m 1024 929 b 939 1014 1024 975 986 1014 l 121 1014 l 121 1183 l 69 1115 l 69 943 l 806 943 l 878 943 b 972 850 929 943 971 901 b 1024 929 1003 864 1024 893 z m 661 651 l 732 581 l 886 581 b 1106 704 979 581 1061 631 b 947 651 1061 671 1007 651 l 661 651 z m 121 821 l 69 753 l 69 753 l 69 -81 l 343 -81 l 397 -10 l 121 -10 l 121 821 z m 321 379 l 321 307 l 201 307 l 201 379 l 140 379 l 140 164 l 244 164 l 244 10 l 394 10 l 394 379 l 321 379 z m 211 317 l 311 317 l 311 389 l 394 389 l 394 531 l 917 10 l 1275 10 l 1236 49 l 999 49 l 493 554 l 285 554 l 285 824 l 140 824 l 140 389 l 211 389 l 211 317 z m 140 154 l 140 10 l 235 10 l 235 154 l 140 154 z m 908 -10 l 414 483 l 414 356 l 851 -81 l 1238 -81 l 1292 -10 l 908 -10 z "},"B":{"ha":1372,"x_min":0,"x_max":0,"o":"m 793 579 b 1038 336 928 579 1038 471 b 1036 310 1038 326 1038 318 b 1035 304 1036 307 1035 306 b 1033 293 1035 301 1033 297 b 1032 282 1032 290 1032 286 b 1031 279 1031 282 1031 281 b 1024 257 1029 272 1026 264 b 1024 256 1024 257 1024 256 b 1024 254 1024 256 1024 254 b 1089 417 1064 296 1089 353 b 854 651 1089 546 983 651 l 414 651 l 414 579 l 742 579 l 793 579 z m 394 207 l 340 207 l 340 135 l 211 135 l 211 207 l 140 207 l 140 10 l 394 10 l 394 207 z m 243 1026 l 163 1026 l 163 1186 l 140 1186 l 140 603 l 243 603 l 243 1026 z m 965 929 b 861 824 965 871 918 824 l 394 824 l 394 1186 l 172 1186 l 172 1036 l 253 1036 l 253 593 l 140 593 l 140 226 l 232 226 l 232 156 l 321 156 l 321 226 l 394 226 l 394 671 l 450 671 l 450 763 l 469 763 l 846 763 l 876 763 b 1025 919 958 763 1025 833 b 853 1096 1025 1038 967 1096 l 490 1096 l 490 1033 l 861 1033 b 965 929 918 1033 965 986 z m 1171 418 b 846 743 1171 597 1025 743 l 471 743 l 471 671 l 854 671 b 1108 417 994 671 1108 557 b 854 163 1108 276 994 163 l 490 163 l 490 93 l 846 93 b 1171 418 1025 93 1171 239 z m 854 -10 l 471 -10 l 471 160 l 419 92 l 419 92 l 419 -81 l 419 -81 l 419 -81 l 793 -81 b 1131 92 932 -81 1054 -12 b 854 -10 1056 28 960 -10 z m 121 -10 l 121 1183 l 69 1115 l 69 1115 l 69 -81 l 69 -81 l 69 -81 l 343 -81 l 397 -10 l 121 -10 z m 1261 417 b 1072 760 1261 556 1190 685 l 1064 765 l 1069 774 b 1118 921 1101 817 1118 868 l 1118 936 b 868 1186 1118 1074 1006 1186 l 490 1186 l 490 1115 l 853 1115 b 1044 919 978 1115 1044 1049 b 929 751 1044 842 996 775 b 1190 418 1079 714 1190 579 b 846 72 1190 228 1036 72 l 490 72 l 490 10 l 854 10 b 1261 417 1079 10 1261 192 z m 728 943 l 728 943 l 800 943 b 893 850 850 943 892 901 b 946 929 924 864 946 893 b 861 1014 946 975 907 1014 l 471 1014 l 471 1183 l 419 1115 l 419 1115 l 419 943 l 419 943 l 419 943 l 728 943 z "},"b":{"ha":1372,"x_min":0,"x_max":0,"o":"m 793 579 b 1038 336 928 579 1038 471 b 1036 310 1038 326 1038 318 b 1035 304 1036 307 1035 306 b 1033 293 1035 301 1033 297 b 1032 282 1032 290 1032 286 b 1031 279 1031 282 1031 281 b 1024 257 1029 272 1026 264 b 1024 256 1024 257 1024 256 b 1024 254 1024 256 1024 254 b 1089 417 1064 296 1089 353 b 854 651 1089 546 983 651 l 414 651 l 414 579 l 742 579 l 793 579 z m 394 207 l 340 207 l 340 135 l 211 135 l 211 207 l 140 207 l 140 10 l 394 10 l 394 207 z m 243 1026 l 163 1026 l 163 1186 l 140 1186 l 140 603 l 243 603 l 243 1026 z m 965 929 b 861 824 965 871 918 824 l 394 824 l 394 1186 l 172 1186 l 172 1036 l 253 1036 l 253 593 l 140 593 l 140 226 l 232 226 l 232 156 l 321 156 l 321 226 l 394 226 l 394 671 l 450 671 l 450 763 l 469 763 l 846 763 l 876 763 b 1025 919 958 763 1025 833 b 853 1096 1025 1038 967 1096 l 490 1096 l 490 1033 l 861 1033 b 965 929 918 1033 965 986 z m 1171 418 b 846 743 1171 597 1025 743 l 471 743 l 471 671 l 854 671 b 1108 417 994 671 1108 557 b 854 163 1108 276 994 163 l 490 163 l 490 93 l 846 93 b 1171 418 1025 93 1171 239 z m 854 -10 l 471 -10 l 471 160 l 419 92 l 419 92 l 419 -81 l 419 -81 l 419 -81 l 793 -81 b 1131 92 932 -81 1054 -12 b 854 -10 1056 28 960 -10 z m 121 -10 l 121 1183 l 69 1115 l 69 1115 l 69 -81 l 69 -81 l 69 -81 l 343 -81 l 397 -10 l 121 -10 z m 1261 417 b 1072 760 1261 556 1190 685 l 1064 765 l 1069 774 b 1118 921 1101 817 1118 868 l 1118 936 b 868 1186 1118 1074 1006 1186 l 490 1186 l 490 1115 l 853 1115 b 1044 919 978 1115 1044 1049 b 929 751 1044 842 996 775 b 1190 418 1079 714 1190 579 b 846 72 1190 228 1036 72 l 490 72 l 490 10 l 854 10 b 1261 417 1079 10 1261 192 z m 728 943 l 728 943 l 800 943 b 893 850 850 943 892 901 b 946 929 924 864 946 893 b 861 1014 946 975 907 1014 l 471 1014 l 471 1183 l 419 1115 l 419 1115 l 419 943 l 419 943 l 419 943 l 728 943 z "},"P":{"ha":1307,"x_min":0,"x_max":0,"o":"m 140 154 l 140 10 l 235 10 l 235 154 l 140 154 z m 121 821 l 69 753 l 69 753 l 69 -81 l 343 -81 l 397 -10 l 121 -10 l 121 821 z m 317 415 l 217 415 l 217 343 l 140 343 l 140 164 l 244 164 l 244 10 l 394 10 l 394 343 l 317 343 l 317 415 z m 285 824 l 140 824 l 140 353 l 207 353 l 207 425 l 326 425 l 326 353 l 394 353 l 394 554 l 285 554 l 285 824 z m 414 651 l 414 581 l 886 581 b 1106 704 979 581 1061 631 b 947 651 1061 671 1007 651 l 414 651 z m 956 763 b 1103 919 1038 763 1103 833 b 931 1096 1103 1038 1046 1096 l 140 1096 l 140 1033 l 939 1033 b 1043 929 996 1033 1043 986 b 939 824 1043 871 996 824 l 453 824 l 453 763 l 956 763 z m 1024 929 b 939 1014 1024 975 986 1014 l 121 1014 l 121 1183 l 69 1115 l 69 943 l 806 943 l 878 943 b 972 850 929 943 971 901 b 1024 929 1003 864 1024 893 z m 1196 921 l 1196 936 b 947 1186 1196 1074 1085 1186 l 140 1186 l 140 1115 l 931 1115 b 1122 919 1057 1115 1122 1049 b 956 743 1122 822 1047 743 l 433 743 l 433 824 l 304 824 l 304 574 l 394 574 l 394 671 l 947 671 b 1196 921 1085 671 1196 783 z "},"p":{"ha":1307,"x_min":0,"x_max":0,"o":"m 140 154 l 140 10 l 235 10 l 235 154 l 140 154 z m 121 821 l 69 753 l 69 753 l 69 -81 l 343 -81 l 397 -10 l 121 -10 l 121 821 z m 317 415 l 217 415 l 217 343 l 140 343 l 140 164 l 244 164 l 244 10 l 394 10 l 394 343 l 317 343 l 317 415 z m 285 824 l 140 824 l 140 353 l 207 353 l 207 425 l 326 425 l 326 353 l 394 353 l 394 554 l 285 554 l 285 824 z m 414 651 l 414 581 l 886 581 b 1106 704 979 581 1061 631 b 947 651 1061 671 1007 651 l 414 651 z m 956 763 b 1103 919 1038 763 1103 833 b 931 1096 1103 1038 1046 1096 l 140 1096 l 140 1033 l 939 1033 b 1043 929 996 1033 1043 986 b 939 824 1043 871 996 824 l 453 824 l 453 763 l 956 763 z m 1024 929 b 939 1014 1024 975 986 1014 l 121 1014 l 121 1183 l 69 1115 l 69 943 l 806 943 l 878 943 b 972 850 929 943 971 901 b 1024 929 1003 864 1024 893 z m 1196 921 l 1196 936 b 947 1186 1196 1074 1085 1186 l 140 1186 l 140 1115 l 931 1115 b 1122 919 1057 1115 1122 1049 b 956 743 1122 822 1047 743 l 433 743 l 433 824 l 304 824 l 304 574 l 394 574 l 394 671 l 947 671 b 1196 921 1085 671 1196 783 z "},"C":{"ha":1383,"x_min":0,"x_max":0,"o":"m 476 185 l 476 82 l 1010 82 b 1265 360 1121 142 1211 239 l 1135 360 b 731 126 1051 215 900 126 b 263 550 486 126 286 313 l 142 550 b 333 161 153 396 225 258 l 333 185 l 476 185 z m 196 835 l 326 835 b 725 1064 408 971 556 1063 l 725 1186 b 154 731 449 1185 215 992 l 196 731 l 196 835 z m 1017 821 b 728 963 946 911 842 963 b 426 804 603 963 492 900 b 428 806 426 804 426 806 b 428 806 428 806 428 806 b 435 811 431 808 432 810 b 454 826 442 817 447 821 b 458 829 456 826 457 828 b 465 832 460 831 463 831 b 485 844 471 836 478 842 b 489 847 486 846 488 846 b 489 847 489 847 489 847 b 553 874 508 858 531 867 b 553 874 553 874 553 874 b 560 876 554 875 557 875 b 585 883 568 879 576 881 b 596 885 589 883 592 885 b 621 889 604 886 613 888 b 631 890 624 889 628 890 b 667 892 643 892 654 892 b 963 746 788 892 894 835 l 1218 746 l 1272 817 l 1019 817 l 1017 821 z m 467 72 l 467 175 l 343 175 l 343 153 b 728 10 447 64 581 10 b 990 72 821 10 910 32 l 467 72 z m 1132 836 l 1265 836 b 1079 1069 1222 931 1158 1011 l 921 1069 l 921 1153 b 735 1186 863 1174 800 1185 l 735 1064 b 1132 836 899 1063 1049 975 z m 731 1044 b 283 646 499 1044 308 869 l 346 646 b 728 982 369 839 532 982 b 1029 836 846 982 956 929 l 1110 836 b 731 1044 1028 965 885 1044 z m 321 825 l 207 825 l 207 721 l 153 721 b 142 646 147 697 143 671 l 264 646 b 321 825 271 710 290 771 z m 731 146 b 1113 360 889 146 1032 228 l 1029 360 b 728 214 956 267 846 214 b 346 550 532 214 369 357 l 283 550 b 731 146 306 324 497 146 z m 122 549 l 69 479 b 69 479 69 479 69 479 l 69 479 b 667 -81 89 167 349 -81 b 700 -79 678 -81 689 -81 b 700 -79 700 -79 700 -79 b 706 -79 701 -79 704 -79 b 706 -79 706 -79 706 -79 b 735 -76 715 -79 725 -78 b 735 -76 735 -76 735 -76 b 746 -75 739 -76 743 -76 b 746 -75 746 -75 746 -75 b 775 -71 756 -74 765 -72 b 775 -71 775 -71 775 -71 b 786 -68 779 -69 782 -69 b 786 -68 786 -68 786 -68 b 800 -65 790 -68 796 -67 b 818 -61 806 -64 813 -62 b 817 -61 817 -61 817 -61 b 1136 147 946 -28 1057 47 b 728 -10 1026 49 882 -10 b 122 549 411 -10 147 235 z m 119 569 l 304 569 l 347 626 l 119 626 l 121 636 b 185 871 126 721 149 800 b 185 871 185 871 185 871 b 178 861 182 868 179 865 b 178 861 178 861 178 861 b 160 836 171 853 165 844 b 160 836 160 836 160 836 b 154 825 158 832 156 828 b 147 814 151 821 150 818 b 147 814 147 814 147 814 b 147 814 147 814 147 814 b 133 788 142 806 138 796 b 131 783 132 786 132 785 b 115 751 125 774 121 763 b 115 751 115 751 115 751 b 110 736 114 747 113 742 b 110 736 110 736 110 736 b 106 726 108 733 107 731 b 106 726 106 726 106 726 b 101 713 104 722 103 718 b 101 713 101 713 101 713 b 94 692 99 706 97 699 b 93 689 94 690 93 690 b 93 689 93 689 93 689 b 89 675 92 683 90 679 b 89 675 89 675 89 675 b 86 663 89 671 88 667 b 86 663 86 663 86 663 b 83 649 85 658 83 653 b 83 649 83 649 83 649 b 81 636 82 644 81 640 b 81 636 81 636 81 636 b 78 621 79 631 78 626 b 78 621 78 621 78 621 b 75 610 76 617 76 614 b 75 610 75 610 75 610 b 74 592 75 604 74 597 b 74 592 74 592 74 592 b 72 582 72 589 72 586 b 72 582 72 582 72 582 b 69 556 71 574 69 564 b 69 556 69 556 69 556 l 69 556 l 69 556 l 121 556 b 121 560 121 557 121 558 l 119 569 z m 1065 1079 b 931 1150 1024 1108 979 1132 l 931 1079 l 1065 1079 z "},"c":{"ha":1383,"x_min":0,"x_max":0,"o":"m 476 185 l 476 82 l 1010 82 b 1265 360 1121 142 1211 239 l 1135 360 b 731 126 1051 215 900 126 b 263 550 486 126 286 313 l 142 550 b 333 161 153 396 225 258 l 333 185 l 476 185 z m 196 835 l 326 835 b 725 1064 408 971 556 1063 l 725 1186 b 154 731 449 1185 215 992 l 196 731 l 196 835 z m 1017 821 b 728 963 946 911 842 963 b 426 804 603 963 492 900 b 428 806 426 804 426 806 b 428 806 428 806 428 806 b 435 811 431 808 432 810 b 454 826 442 817 447 821 b 458 829 456 826 457 828 b 465 832 460 831 463 831 b 485 844 471 836 478 842 b 489 847 486 846 488 846 b 489 847 489 847 489 847 b 553 874 508 858 531 867 b 553 874 553 874 553 874 b 560 876 554 875 557 875 b 585 883 568 879 576 881 b 596 885 589 883 592 885 b 621 889 604 886 613 888 b 631 890 624 889 628 890 b 667 892 643 892 654 892 b 963 746 788 892 894 835 l 1218 746 l 1272 817 l 1019 817 l 1017 821 z m 467 72 l 467 175 l 343 175 l 343 153 b 728 10 447 64 581 10 b 990 72 821 10 910 32 l 467 72 z m 1132 836 l 1265 836 b 1079 1069 1222 931 1158 1011 l 921 1069 l 921 1153 b 735 1186 863 1174 800 1185 l 735 1064 b 1132 836 899 1063 1049 975 z m 731 1044 b 283 646 499 1044 308 869 l 346 646 b 728 982 369 839 532 982 b 1029 836 846 982 956 929 l 1110 836 b 731 1044 1028 965 885 1044 z m 321 825 l 207 825 l 207 721 l 153 721 b 142 646 147 697 143 671 l 264 646 b 321 825 271 710 290 771 z m 731 146 b 1113 360 889 146 1032 228 l 1029 360 b 728 214 956 267 846 214 b 346 550 532 214 369 357 l 283 550 b 731 146 306 324 497 146 z m 122 549 l 69 479 b 69 479 69 479 69 479 l 69 479 b 667 -81 89 167 349 -81 b 700 -79 678 -81 689 -81 b 700 -79 700 -79 700 -79 b 706 -79 701 -79 704 -79 b 706 -79 706 -79 706 -79 b 735 -76 715 -79 725 -78 b 735 -76 735 -76 735 -76 b 746 -75 739 -76 743 -76 b 746 -75 746 -75 746 -75 b 775 -71 756 -74 765 -72 b 775 -71 775 -71 775 -71 b 786 -68 779 -69 782 -69 b 786 -68 786 -68 786 -68 b 800 -65 790 -68 796 -67 b 818 -61 806 -64 813 -62 b 817 -61 817 -61 817 -61 b 1136 147 946 -28 1057 47 b 728 -10 1026 49 882 -10 b 122 549 411 -10 147 235 z m 119 569 l 304 569 l 347 626 l 119 626 l 121 636 b 185 871 126 721 149 800 b 185 871 185 871 185 871 b 178 861 182 868 179 865 b 178 861 178 861 178 861 b 160 836 171 853 165 844 b 160 836 160 836 160 836 b 154 825 158 832 156 828 b 147 814 151 821 150 818 b 147 814 147 814 147 814 b 147 814 147 814 147 814 b 133 788 142 806 138 796 b 131 783 132 786 132 785 b 115 751 125 774 121 763 b 115 751 115 751 115 751 b 110 736 114 747 113 742 b 110 736 110 736 110 736 b 106 726 108 733 107 731 b 106 726 106 726 106 726 b 101 713 104 722 103 718 b 101 713 101 713 101 713 b 94 692 99 706 97 699 b 93 689 94 690 93 690 b 93 689 93 689 93 689 b 89 675 92 683 90 679 b 89 675 89 675 89 675 b 86 663 89 671 88 667 b 86 663 86 663 86 663 b 83 649 85 658 83 653 b 83 649 83 649 83 649 b 81 636 82 644 81 640 b 81 636 81 636 81 636 b 78 621 79 631 78 626 b 78 621 78 621 78 621 b 75 610 76 617 76 614 b 75 610 75 610 75 610 b 74 592 75 604 74 597 b 74 592 74 592 74 592 b 72 582 72 589 72 586 b 72 582 72 582 72 582 b 69 556 71 574 69 564 b 69 556 69 556 69 556 l 69 556 l 69 556 l 121 556 b 121 560 121 557 121 558 l 119 569 z m 1065 1079 b 931 1150 1024 1108 979 1132 l 931 1079 l 1065 1079 z "},"O":{"ha":1428,"x_min":0,"x_max":0,"o":"m 1210 261 b 1279 396 1239 303 1263 349 l 1210 396 l 1210 261 z m 274 722 b 728 1068 328 921 511 1068 b 1194 646 971 1068 1171 882 l 1314 646 b 1031 1101 1297 839 1188 1006 l 867 1101 l 867 1144 l 681 1144 l 681 1101 l 424 1101 b 208 874 332 1046 258 967 l 208 722 l 274 722 z m 272 713 l 197 713 l 197 854 b 142 646 167 790 147 719 l 261 646 b 272 713 263 668 267 690 z m 728 1049 b 281 646 494 1049 304 872 l 346 646 b 728 982 369 838 532 982 b 1108 646 922 982 1085 838 l 1174 646 b 728 1049 1151 872 960 1049 z m 1090 635 b 728 963 1072 822 915 963 b 426 804 603 963 492 901 b 428 806 426 804 426 806 b 428 806 428 806 428 806 b 435 811 431 808 432 810 b 454 826 442 817 447 821 b 458 829 456 826 457 828 b 465 832 460 831 463 831 b 485 844 471 836 478 842 b 489 847 486 846 488 846 b 489 847 489 847 489 847 b 553 874 508 858 531 867 b 553 874 553 874 553 874 b 560 876 554 875 557 875 b 585 883 568 879 576 881 b 596 885 589 883 592 885 b 621 889 604 886 613 888 b 631 890 624 889 628 890 b 667 892 643 892 654 892 b 1039 556 860 892 1019 744 l 1089 556 b 1090 561 1090 557 1090 558 l 1092 569 l 1274 569 l 1317 626 l 1092 626 l 1090 635 z m 1033 442 b 1032 435 1033 439 1032 438 b 1028 421 1031 431 1029 425 b 1024 404 1026 415 1025 410 b 1022 400 1022 403 1022 401 b 1018 389 1021 396 1019 393 b 1010 368 1015 382 1013 375 b 1010 367 1010 368 1010 367 b 1008 364 1008 365 1008 365 b 1088 543 1050 414 1078 475 l 1039 479 b 1033 442 1038 467 1036 454 z m 671 1154 l 876 1154 l 876 1111 l 1014 1111 b 728 1186 929 1158 831 1186 b 440 1111 624 1186 525 1158 l 671 1111 l 671 1154 z m 1200 249 l 1200 406 l 1283 406 b 1314 550 1299 451 1310 500 l 1193 550 b 728 131 1169 314 969 131 b 261 550 485 131 286 314 l 142 550 b 501 54 158 325 304 138 l 953 54 b 1200 249 1051 96 1136 163 z m 119 569 l 304 569 l 347 626 l 119 626 l 121 636 b 185 871 126 721 149 800 b 174 857 181 867 178 861 b 174 857 174 857 174 857 b 164 840 171 851 167 846 b 164 840 164 840 164 840 b 160 836 163 839 161 838 b 160 836 160 836 160 836 b 150 819 157 831 153 825 b 150 819 150 819 150 819 b 133 788 144 808 139 799 b 131 783 132 786 132 785 b 118 756 126 775 122 765 b 118 756 118 756 118 756 b 118 756 118 756 118 756 b 115 751 117 754 117 753 b 115 751 115 751 115 751 b 113 742 115 749 114 746 b 103 717 108 733 106 725 b 101 713 101 715 101 714 b 101 713 101 713 101 713 b 94 693 99 707 97 700 b 93 689 94 692 93 690 b 93 689 93 689 93 689 b 82 644 89 674 85 660 b 81 636 82 642 81 639 b 81 636 81 636 81 636 b 74 592 78 622 75 607 b 74 592 74 592 74 592 b 72 588 72 590 72 589 b 69 556 71 576 69 565 l 121 556 b 121 560 121 557 121 558 l 119 569 z m 526 44 b 728 10 589 22 657 10 b 928 44 797 10 865 22 l 526 44 z m 122 549 l 69 479 b 667 -81 89 167 349 -81 b 701 -79 678 -81 690 -81 b 701 -79 701 -79 701 -79 b 746 -75 717 -79 732 -78 b 746 -75 746 -75 746 -75 b 747 -75 746 -75 746 -75 b 818 -61 771 -72 794 -68 b 817 -61 818 -61 817 -61 b 1138 150 946 -28 1058 47 b 728 -10 1029 50 885 -10 b 122 549 411 -10 147 235 z m 728 150 b 1174 550 958 150 1149 325 l 1108 550 b 728 213 1085 357 922 213 b 346 550 532 213 369 357 l 281 550 b 728 150 306 325 496 150 z "},"o":{"ha":1428,"x_min":0,"x_max":0,"o":"m 1210 261 b 1279 396 1239 303 1263 349 l 1210 396 l 1210 261 z m 274 722 b 728 1068 328 921 511 1068 b 1194 646 971 1068 1171 882 l 1314 646 b 1031 1101 1297 839 1188 1006 l 867 1101 l 867 1144 l 681 1144 l 681 1101 l 424 1101 b 208 874 332 1046 258 967 l 208 722 l 274 722 z m 272 713 l 197 713 l 197 854 b 142 646 167 790 147 719 l 261 646 b 272 713 263 668 267 690 z m 728 1049 b 281 646 494 1049 304 872 l 346 646 b 728 982 369 838 532 982 b 1108 646 922 982 1085 838 l 1174 646 b 728 1049 1151 872 960 1049 z m 1090 635 b 728 963 1072 822 915 963 b 426 804 603 963 492 901 b 428 806 426 804 426 806 b 428 806 428 806 428 806 b 435 811 431 808 432 810 b 454 826 442 817 447 821 b 458 829 456 826 457 828 b 465 832 460 831 463 831 b 485 844 471 836 478 842 b 489 847 486 846 488 846 b 489 847 489 847 489 847 b 553 874 508 858 531 867 b 553 874 553 874 553 874 b 560 876 554 875 557 875 b 585 883 568 879 576 881 b 596 885 589 883 592 885 b 621 889 604 886 613 888 b 631 890 624 889 628 890 b 667 892 643 892 654 892 b 1039 556 860 892 1019 744 l 1089 556 b 1090 561 1090 557 1090 558 l 1092 569 l 1274 569 l 1317 626 l 1092 626 l 1090 635 z m 1033 442 b 1032 435 1033 439 1032 438 b 1028 421 1031 431 1029 425 b 1024 404 1026 415 1025 410 b 1022 400 1022 403 1022 401 b 1018 389 1021 396 1019 393 b 1010 368 1015 382 1013 375 b 1010 367 1010 368 1010 367 b 1008 364 1008 365 1008 365 b 1088 543 1050 414 1078 475 l 1039 479 b 1033 442 1038 467 1036 454 z m 671 1154 l 876 1154 l 876 1111 l 1014 1111 b 728 1186 929 1158 831 1186 b 440 1111 624 1186 525 1158 l 671 1111 l 671 1154 z m 1200 249 l 1200 406 l 1283 406 b 1314 550 1299 451 1310 500 l 1193 550 b 728 131 1169 314 969 131 b 261 550 485 131 286 314 l 142 550 b 501 54 158 325 304 138 l 953 54 b 1200 249 1051 96 1136 163 z m 119 569 l 304 569 l 347 626 l 119 626 l 121 636 b 185 871 126 721 149 800 b 174 857 181 867 178 861 b 174 857 174 857 174 857 b 164 840 171 851 167 846 b 164 840 164 840 164 840 b 160 836 163 839 161 838 b 160 836 160 836 160 836 b 150 819 157 831 153 825 b 150 819 150 819 150 819 b 133 788 144 808 139 799 b 131 783 132 786 132 785 b 118 756 126 775 122 765 b 118 756 118 756 118 756 b 118 756 118 756 118 756 b 115 751 117 754 117 753 b 115 751 115 751 115 751 b 113 742 115 749 114 746 b 103 717 108 733 106 725 b 101 713 101 715 101 714 b 101 713 101 713 101 713 b 94 693 99 707 97 700 b 93 689 94 692 93 690 b 93 689 93 689 93 689 b 82 644 89 674 85 660 b 81 636 82 642 81 639 b 81 636 81 636 81 636 b 74 592 78 622 75 607 b 74 592 74 592 74 592 b 72 588 72 590 72 589 b 69 556 71 576 69 565 l 121 556 b 121 560 121 557 121 558 l 119 569 z m 526 44 b 728 10 589 22 657 10 b 928 44 797 10 865 22 l 526 44 z m 122 549 l 69 479 b 667 -81 89 167 349 -81 b 701 -79 678 -81 690 -81 b 701 -79 701 -79 701 -79 b 746 -75 717 -79 732 -78 b 746 -75 746 -75 746 -75 b 747 -75 746 -75 746 -75 b 818 -61 771 -72 794 -68 b 817 -61 818 -61 817 -61 b 1138 150 946 -28 1058 47 b 728 -10 1029 50 885 -10 b 122 549 411 -10 147 235 z m 728 150 b 1174 550 958 150 1149 325 l 1108 550 b 728 213 1085 357 922 213 b 346 550 532 213 369 357 l 281 550 b 728 150 306 325 496 150 z "},"F":{"ha":1210,"x_min":0,"x_max":0,"o":"m 121 1183 l 69 1115 l 69 -81 l 69 -81 l 69 -81 l 69 -81 l 69 -81 l 69 -81 l 69 -81 l 343 -81 l 343 -81 l 343 -81 l 397 -10 l 121 -10 l 121 1183 z m 340 349 l 189 349 l 189 210 l 140 210 l 140 10 l 394 10 l 394 210 l 340 210 l 340 349 z m 240 1186 l 140 1186 l 140 1058 l 240 1058 l 240 1186 z m 336 950 l 394 950 l 394 1186 l 250 1186 l 250 1049 l 140 1049 l 140 219 l 179 219 l 179 358 l 350 358 l 350 219 l 394 219 l 394 497 l 336 497 l 336 950 z m 414 581 l 1044 581 l 1099 651 l 414 651 l 414 581 z m 1096 733 l 1096 824 l 394 824 l 394 929 l 356 929 l 356 517 l 394 517 l 394 671 l 710 671 l 710 733 l 1096 733 z m 719 724 l 719 671 l 1096 671 l 1096 724 l 719 724 z m 1096 1103 l 1096 1186 l 490 1186 l 490 1033 l 710 1033 l 710 1103 l 1096 1103 z m 719 1093 l 719 1033 l 1096 1033 l 1096 1093 l 719 1093 z m 471 1183 l 419 1115 l 419 1115 l 419 943 l 419 943 l 419 943 l 1044 943 l 1099 1014 l 471 1014 l 471 1183 z "},"f":{"ha":1210,"x_min":0,"x_max":0,"o":"m 121 1183 l 69 1115 l 69 -81 l 69 -81 l 69 -81 l 69 -81 l 69 -81 l 69 -81 l 69 -81 l 343 -81 l 343 -81 l 343 -81 l 397 -10 l 121 -10 l 121 1183 z m 340 349 l 189 349 l 189 210 l 140 210 l 140 10 l 394 10 l 394 210 l 340 210 l 340 349 z m 240 1186 l 140 1186 l 140 1058 l 240 1058 l 240 1186 z m 336 950 l 394 950 l 394 1186 l 250 1186 l 250 1049 l 140 1049 l 140 219 l 179 219 l 179 358 l 350 358 l 350 219 l 394 219 l 394 497 l 336 497 l 336 950 z m 414 581 l 1044 581 l 1099 651 l 414 651 l 414 581 z m 1096 733 l 1096 824 l 394 824 l 394 929 l 356 929 l 356 517 l 394 517 l 394 671 l 710 671 l 710 733 l 1096 733 z m 719 724 l 719 671 l 1096 671 l 1096 724 l 719 724 z m 1096 1103 l 1096 1186 l 490 1186 l 490 1033 l 710 1033 l 710 1103 l 1096 1103 z m 719 1093 l 719 1033 l 1096 1033 l 1096 1093 l 719 1093 z m 471 1183 l 419 1115 l 419 1115 l 419 943 l 419 943 l 419 943 l 1044 943 l 1099 1014 l 471 1014 l 471 1183 z "},"H":{"ha":1364,"x_min":0,"x_max":0,"o":"m 900 736 l 900 824 l 394 824 l 394 911 l 335 911 l 335 1186 l 183 1186 l 183 911 l 140 911 l 140 10 l 260 10 l 260 600 l 394 600 l 394 671 l 525 671 l 525 736 l 900 736 z m 279 10 l 394 10 l 394 581 l 279 581 l 279 10 z m 544 717 l 544 671 l 900 671 l 900 717 l 544 717 z m 394 921 l 394 1186 l 344 1186 l 344 921 l 394 921 z m 121 1183 l 69 1115 l 69 -81 l 69 -81 l 343 -81 l 343 -81 l 397 -10 l 121 -10 l 121 1183 z m 414 581 l 849 581 l 903 651 l 414 651 l 414 581 z m 174 1186 l 140 1186 l 140 921 l 174 921 l 174 1186 z m 1250 215 l 1186 215 l 1186 143 l 1057 143 l 1057 215 l 996 215 l 996 10 l 1250 10 l 1250 215 z m 1067 153 l 1176 153 l 1176 225 l 1250 225 l 1250 519 l 1092 519 l 1092 658 l 1250 658 l 1250 1186 l 1118 1186 l 1118 913 l 996 913 l 996 225 l 1067 225 l 1067 153 z m 1108 1186 l 996 1186 l 996 922 l 1108 922 l 1108 1186 z m 976 1183 l 925 1115 l 925 1115 l 925 1115 l 925 -81 l 925 -81 l 1199 -81 l 1253 -10 l 976 -10 l 976 1183 z m 1111 539 l 1250 539 l 1250 639 l 1111 639 l 1111 539 z "},"h":{"ha":1364,"x_min":0,"x_max":0,"o":"m 900 736 l 900 824 l 394 824 l 394 911 l 335 911 l 335 1186 l 183 1186 l 183 911 l 140 911 l 140 10 l 260 10 l 260 600 l 394 600 l 394 671 l 525 671 l 525 736 l 900 736 z m 279 10 l 394 10 l 394 581 l 279 581 l 279 10 z m 544 717 l 544 671 l 900 671 l 900 717 l 544 717 z m 394 921 l 394 1186 l 344 1186 l 344 921 l 394 921 z m 121 1183 l 69 1115 l 69 -81 l 69 -81 l 343 -81 l 343 -81 l 397 -10 l 121 -10 l 121 1183 z m 414 581 l 849 581 l 903 651 l 414 651 l 414 581 z m 174 1186 l 140 1186 l 140 921 l 174 921 l 174 1186 z m 1250 215 l 1186 215 l 1186 143 l 1057 143 l 1057 215 l 996 215 l 996 10 l 1250 10 l 1250 215 z m 1067 153 l 1176 153 l 1176 225 l 1250 225 l 1250 519 l 1092 519 l 1092 658 l 1250 658 l 1250 1186 l 1118 1186 l 1118 913 l 996 913 l 996 225 l 1067 225 l 1067 153 z m 1108 1186 l 996 1186 l 996 922 l 1108 922 l 1108 1186 z m 976 1183 l 925 1115 l 925 1115 l 925 1115 l 925 -81 l 925 -81 l 1199 -81 l 1253 -10 l 976 -10 l 976 1183 z m 1111 539 l 1250 539 l 1250 639 l 1111 639 l 1111 539 z "},"D":{"ha":1372,"x_min":0,"x_max":0,"o":"m 674 10 b 896 53 751 10 828 25 l 632 53 l 632 10 l 674 10 z m 176 1001 l 247 1001 l 247 1153 l 176 1153 l 176 1186 l 140 1186 l 140 10 l 176 10 l 176 1001 z m 1261 597 b 674 1186 1261 922 997 1186 l 571 1186 l 571 1097 l 682 1097 b 1181 600 957 1097 1181 874 b 682 101 1181 325 957 101 l 490 101 l 490 10 l 622 10 l 622 64 l 918 64 b 1261 597 1121 157 1261 361 z m 674 -10 l 471 -10 l 471 160 l 419 92 l 419 92 l 419 -81 l 419 -81 l 419 -81 l 613 -81 b 1083 150 804 -81 974 10 b 674 -10 975 50 831 -10 z m 281 399 l 394 399 l 394 1033 l 674 1033 b 1108 597 913 1033 1108 838 b 674 163 1108 358 913 163 l 490 163 l 490 121 l 682 121 b 1160 600 946 121 1160 336 b 682 1078 1160 863 946 1078 l 551 1078 l 551 1186 l 186 1186 l 186 1164 l 257 1164 l 257 992 l 186 992 l 186 10 l 281 10 l 281 399 z m 121 -10 l 121 1183 l 69 1115 l 69 1115 l 69 -81 l 69 -81 l 69 -81 l 343 -81 l 397 -10 l 121 -10 z m 740 922 b 769 913 750 919 760 915 b 774 911 771 911 772 911 b 801 899 783 907 792 903 b 804 896 803 897 803 897 b 857 864 824 888 840 876 b 861 863 858 864 860 863 b 885 843 869 856 878 850 b 888 842 886 843 886 842 b 899 831 890 838 894 835 b 908 822 901 828 906 825 b 911 819 910 821 910 821 b 931 799 918 813 925 806 b 935 794 932 797 933 796 b 953 771 942 786 947 779 b 954 771 953 771 954 771 b 971 746 960 763 965 754 b 974 742 971 744 972 743 b 988 717 978 733 983 725 b 990 711 989 715 989 714 b 990 711 990 711 990 711 b 1003 686 994 703 999 694 b 1003 683 1003 685 1003 685 b 1014 656 1007 675 1011 665 b 1017 650 1015 654 1015 653 b 1025 621 1019 640 1022 631 b 1025 618 1025 621 1025 619 b 1026 615 1025 617 1025 617 b 1031 590 1028 607 1029 599 b 1032 585 1032 589 1032 588 b 1035 565 1033 579 1033 572 b 1036 556 1035 561 1035 558 b 1036 549 1036 553 1036 551 b 1038 517 1038 539 1038 528 l 1038 517 b 1036 490 1038 508 1038 500 b 1036 483 1036 489 1036 486 b 1033 464 1036 476 1035 469 b 1033 457 1033 461 1033 460 b 1033 457 1033 457 1033 457 b 1022 406 1031 439 1026 422 b 1022 406 1022 406 1022 406 b 1021 401 1022 404 1022 403 b 1017 388 1021 397 1018 393 b 1014 379 1017 385 1015 382 b 1014 376 1014 378 1014 378 b 999 340 1010 364 1004 351 b 1089 597 1054 411 1089 500 b 674 1014 1089 826 903 1014 l 414 1014 l 414 943 l 613 943 b 740 922 657 943 700 936 z m 394 379 l 300 379 l 300 10 l 394 10 l 394 379 z "},"d":{"ha":1372,"x_min":0,"x_max":0,"o":"m 674 10 b 896 53 751 10 828 25 l 632 53 l 632 10 l 674 10 z m 176 1001 l 247 1001 l 247 1153 l 176 1153 l 176 1186 l 140 1186 l 140 10 l 176 10 l 176 1001 z m 1261 597 b 674 1186 1261 922 997 1186 l 571 1186 l 571 1097 l 682 1097 b 1181 600 957 1097 1181 874 b 682 101 1181 325 957 101 l 490 101 l 490 10 l 622 10 l 622 64 l 918 64 b 1261 597 1121 157 1261 361 z m 674 -10 l 471 -10 l 471 160 l 419 92 l 419 92 l 419 -81 l 419 -81 l 419 -81 l 613 -81 b 1083 150 804 -81 974 10 b 674 -10 975 50 831 -10 z m 281 399 l 394 399 l 394 1033 l 674 1033 b 1108 597 913 1033 1108 838 b 674 163 1108 358 913 163 l 490 163 l 490 121 l 682 121 b 1160 600 946 121 1160 336 b 682 1078 1160 863 946 1078 l 551 1078 l 551 1186 l 186 1186 l 186 1164 l 257 1164 l 257 992 l 186 992 l 186 10 l 281 10 l 281 399 z m 121 -10 l 121 1183 l 69 1115 l 69 1115 l 69 -81 l 69 -81 l 69 -81 l 343 -81 l 397 -10 l 121 -10 z m 740 922 b 769 913 750 919 760 915 b 774 911 771 911 772 911 b 801 899 783 907 792 903 b 804 896 803 897 803 897 b 857 864 824 888 840 876 b 861 863 858 864 860 863 b 885 843 869 856 878 850 b 888 842 886 843 886 842 b 899 831 890 838 894 835 b 908 822 901 828 906 825 b 911 819 910 821 910 821 b 931 799 918 813 925 806 b 935 794 932 797 933 796 b 953 771 942 786 947 779 b 954 771 953 771 954 771 b 971 746 960 763 965 754 b 974 742 971 744 972 743 b 988 717 978 733 983 725 b 990 711 989 715 989 714 b 990 711 990 711 990 711 b 1003 686 994 703 999 694 b 1003 683 1003 685 1003 685 b 1014 656 1007 675 1011 665 b 1017 650 1015 654 1015 653 b 1025 621 1019 640 1022 631 b 1025 618 1025 621 1025 619 b 1026 615 1025 617 1025 617 b 1031 590 1028 607 1029 599 b 1032 585 1032 589 1032 588 b 1035 565 1033 579 1033 572 b 1036 556 1035 561 1035 558 b 1036 549 1036 553 1036 551 b 1038 517 1038 539 1038 528 l 1038 517 b 1036 490 1038 508 1038 500 b 1036 483 1036 489 1036 486 b 1033 464 1036 476 1035 469 b 1033 457 1033 461 1033 460 b 1033 457 1033 457 1033 457 b 1022 406 1031 439 1026 422 b 1022 406 1022 406 1022 406 b 1021 401 1022 404 1022 403 b 1017 388 1021 397 1018 393 b 1014 379 1017 385 1015 382 b 1014 376 1014 378 1014 378 b 999 340 1010 364 1004 351 b 1089 597 1054 411 1089 500 b 674 1014 1089 826 903 1014 l 414 1014 l 414 943 l 613 943 b 740 922 657 943 700 936 z m 394 379 l 300 379 l 300 10 l 394 10 l 394 379 z "},"I":{"ha":508,"x_min":0,"x_max":0,"o":"m 219 942 l 394 942 l 394 1051 l 219 1051 l 219 942 z m 121 1183 l 69 1115 l 69 1115 l 69 1115 l 69 1115 l 69 -81 l 69 -81 l 343 -81 l 397 -10 l 121 -10 l 121 1183 z m 190 10 l 394 10 l 394 293 l 190 293 l 190 10 z m 181 303 l 394 303 l 394 544 l 319 544 l 319 617 l 219 617 l 219 544 l 140 544 l 140 10 l 181 10 l 181 303 z m 200 636 l 339 636 l 339 564 l 394 564 l 394 932 l 210 932 l 210 1061 l 394 1061 l 394 1186 l 140 1186 l 140 564 l 200 564 l 200 636 z "},"i":{"ha":508,"x_min":0,"x_max":0,"o":"m 219 942 l 394 942 l 394 1051 l 219 1051 l 219 942 z m 121 1183 l 69 1115 l 69 1115 l 69 1115 l 69 1115 l 69 -81 l 69 -81 l 343 -81 l 397 -10 l 121 -10 l 121 1183 z m 190 10 l 394 10 l 394 293 l 190 293 l 190 10 z m 181 303 l 394 303 l 394 544 l 319 544 l 319 617 l 219 617 l 219 544 l 140 544 l 140 10 l 181 10 l 181 303 z m 200 636 l 339 636 l 339 564 l 394 564 l 394 932 l 210 932 l 210 1061 l 394 1061 l 394 1186 l 140 1186 l 140 564 l 200 564 l 200 636 z "},"T":{"ha":1193,"x_min":0,"x_max":0,"o":"m 464 935 l 413 867 l 413 -81 l 686 -81 l 739 -10 l 464 -10 l 464 935 z m 121 1183 l 69 1115 l 69 943 l 464 943 l 464 957 l 757 957 l 757 943 l 1028 943 l 1082 1014 l 121 1014 l 121 1183 z m 671 139 l 671 10 l 738 10 l 738 139 l 671 139 z m 588 1132 l 864 1132 l 864 1074 l 1079 1074 l 1079 1186 l 140 1186 l 140 1074 l 588 1074 l 588 1132 z m 854 1064 l 854 1122 l 597 1122 l 597 1064 l 140 1064 l 140 1033 l 1079 1033 l 1079 1064 l 854 1064 z m 508 399 l 508 686 l 568 686 l 568 938 l 483 938 l 483 10 l 568 10 l 568 399 l 508 399 z m 738 149 l 738 938 l 588 938 l 588 667 l 528 667 l 528 418 l 588 418 l 588 10 l 661 10 l 661 149 l 738 149 z "},"t":{"ha":1193,"x_min":0,"x_max":0,"o":"m 464 935 l 413 867 l 413 -81 l 686 -81 l 739 -10 l 464 -10 l 464 935 z m 121 1183 l 69 1115 l 69 943 l 464 943 l 464 957 l 757 957 l 757 943 l 1028 943 l 1082 1014 l 121 1014 l 121 1183 z m 671 139 l 671 10 l 738 10 l 738 139 l 671 139 z m 588 1132 l 864 1132 l 864 1074 l 1079 1074 l 1079 1186 l 140 1186 l 140 1074 l 588 1074 l 588 1132 z m 854 1064 l 854 1122 l 597 1122 l 597 1064 l 140 1064 l 140 1033 l 1079 1033 l 1079 1064 l 854 1064 z m 508 399 l 508 686 l 568 686 l 568 938 l 483 938 l 483 10 l 568 10 l 568 399 l 508 399 z m 738 149 l 738 938 l 588 938 l 588 667 l 528 667 l 528 418 l 588 418 l 588 10 l 661 10 l 661 149 l 738 149 z "},"E":{"ha":1210,"x_min":0,"x_max":0,"o":"m 1096 757 l 1096 824 l 567 824 l 567 757 l 1096 757 z m 251 10 l 394 10 l 394 379 l 251 379 l 251 10 z m 414 581 l 1044 581 l 1044 581 l 1099 651 l 414 651 l 414 581 z m 121 1183 l 69 1115 l 69 1115 l 69 -81 l 69 -81 l 69 -81 l 343 -81 l 397 -10 l 121 -10 l 121 1183 z m 547 824 l 394 824 l 394 935 l 335 935 l 335 1007 l 183 1007 l 183 935 l 140 935 l 140 10 l 232 10 l 232 399 l 394 399 l 394 671 l 1096 671 l 1096 738 l 547 738 l 547 824 z m 174 1017 l 344 1017 l 344 944 l 394 944 l 394 1186 l 140 1186 l 140 944 l 174 944 l 174 1017 z m 858 1186 l 490 1186 l 490 1122 l 858 1122 l 858 1186 z m 471 1183 l 419 1115 l 419 1115 l 419 943 l 419 943 l 419 943 l 1044 943 l 1099 1014 l 471 1014 l 471 1183 z m 868 1113 l 490 1113 l 490 1033 l 1096 1033 l 1096 1186 l 868 1186 l 868 1113 z m 1096 163 l 490 163 l 490 90 l 1096 90 l 1096 163 z m 490 10 l 1096 10 l 1096 81 l 490 81 l 490 10 z m 471 160 l 419 92 l 419 92 l 419 -81 l 419 -81 l 419 -81 l 1044 -81 l 1099 -10 l 471 -10 l 471 160 z "},"e":{"ha":1210,"x_min":0,"x_max":0,"o":"m 1096 757 l 1096 824 l 567 824 l 567 757 l 1096 757 z m 251 10 l 394 10 l 394 379 l 251 379 l 251 10 z m 414 581 l 1044 581 l 1044 581 l 1099 651 l 414 651 l 414 581 z m 121 1183 l 69 1115 l 69 1115 l 69 -81 l 69 -81 l 69 -81 l 343 -81 l 397 -10 l 121 -10 l 121 1183 z m 547 824 l 394 824 l 394 935 l 335 935 l 335 1007 l 183 1007 l 183 935 l 140 935 l 140 10 l 232 10 l 232 399 l 394 399 l 394 671 l 1096 671 l 1096 738 l 547 738 l 547 824 z m 174 1017 l 344 1017 l 344 944 l 394 944 l 394 1186 l 140 1186 l 140 944 l 174 944 l 174 1017 z m 858 1186 l 490 1186 l 490 1122 l 858 1122 l 858 1186 z m 471 1183 l 419 1115 l 419 1115 l 419 943 l 419 943 l 419 943 l 1044 943 l 1099 1014 l 471 1014 l 471 1183 z m 868 1113 l 490 1113 l 490 1033 l 1096 1033 l 1096 1186 l 868 1186 l 868 1113 z m 1096 163 l 490 163 l 490 90 l 1096 90 l 1096 163 z m 490 10 l 1096 10 l 1096 81 l 490 81 l 490 10 z m 471 160 l 419 92 l 419 92 l 419 -81 l 419 -81 l 419 -81 l 1044 -81 l 1099 -10 l 471 -10 l 471 160 z "},"M":{"ha":1418,"x_min":0,"x_max":0,"o":"m 121 1183 l 69 1115 l 69 -81 l 343 -81 l 397 -10 l 121 -10 l 121 1183 z m 414 744 l 414 571 l 558 300 l 768 300 l 822 371 l 614 371 l 414 744 z m 926 951 l 903 919 l 721 579 l 724 572 l 926 951 z m 301 1103 l 301 563 l 356 563 l 356 86 l 394 86 l 394 824 l 625 390 l 696 390 l 301 1103 z m 346 553 l 301 553 l 301 10 l 394 10 l 394 76 l 346 76 l 346 553 z m 824 390 l 954 636 l 954 783 l 760 390 l 824 390 z m 326 1097 l 378 1097 l 378 1025 l 460 1025 l 375 1186 l 197 1186 l 197 399 l 140 399 l 140 10 l 282 10 l 282 1178 l 326 1097 z m 188 1186 l 140 1186 l 140 410 l 188 410 l 188 1186 z m 718 390 l 738 390 l 954 826 l 954 961 l 724 531 l 465 1015 l 372 1015 l 718 390 z m 368 1088 l 332 1088 l 368 1022 l 368 1088 z m 1106 821 l 1221 821 l 1221 893 l 1304 893 l 1304 1126 l 1215 1126 l 1215 1186 l 1114 1186 l 1114 1126 l 1050 1126 l 1050 893 l 1106 893 l 1106 821 z m 1304 489 l 1304 883 l 1231 883 l 1231 811 l 1096 811 l 1096 883 l 1050 883 l 1050 10 l 1168 10 l 1168 489 l 1304 489 z m 1104 1186 l 1050 1186 l 1050 1136 l 1104 1136 l 1104 1186 z m 1031 1183 l 979 1115 l 979 -81 l 1253 -81 l 1307 -10 l 1031 -10 l 1031 1183 z m 1188 469 l 1188 10 l 1304 10 l 1304 469 l 1188 469 z m 1304 1136 l 1304 1186 l 1225 1186 l 1225 1136 l 1304 1136 z "},"m":{"ha":1418,"x_min":0,"x_max":0,"o":"m 121 1183 l 69 1115 l 69 -81 l 343 -81 l 397 -10 l 121 -10 l 121 1183 z m 414 744 l 414 571 l 558 300 l 768 300 l 822 371 l 614 371 l 414 744 z m 926 951 l 903 919 l 721 579 l 724 572 l 926 951 z m 301 1103 l 301 563 l 356 563 l 356 86 l 394 86 l 394 824 l 625 390 l 696 390 l 301 1103 z m 346 553 l 301 553 l 301 10 l 394 10 l 394 76 l 346 76 l 346 553 z m 824 390 l 954 636 l 954 783 l 760 390 l 824 390 z m 326 1097 l 378 1097 l 378 1025 l 460 1025 l 375 1186 l 197 1186 l 197 399 l 140 399 l 140 10 l 282 10 l 282 1178 l 326 1097 z m 188 1186 l 140 1186 l 140 410 l 188 410 l 188 1186 z m 718 390 l 738 390 l 954 826 l 954 961 l 724 531 l 465 1015 l 372 1015 l 718 390 z m 368 1088 l 332 1088 l 368 1022 l 368 1088 z m 1106 821 l 1221 821 l 1221 893 l 1304 893 l 1304 1126 l 1215 1126 l 1215 1186 l 1114 1186 l 1114 1126 l 1050 1126 l 1050 893 l 1106 893 l 1106 821 z m 1304 489 l 1304 883 l 1231 883 l 1231 811 l 1096 811 l 1096 883 l 1050 883 l 1050 10 l 1168 10 l 1168 489 l 1304 489 z m 1104 1186 l 1050 1186 l 1050 1136 l 1104 1136 l 1104 1186 z m 1031 1183 l 979 1115 l 979 -81 l 1253 -81 l 1307 -10 l 1031 -10 l 1031 1183 z m 1188 469 l 1188 10 l 1304 10 l 1304 469 l 1188 469 z m 1304 1136 l 1304 1186 l 1225 1186 l 1225 1136 l 1304 1136 z "},"U":{"ha":1425,"x_min":0,"x_max":0,"o":"m 560 149 b 728 118 611 129 668 118 b 896 149 786 118 843 129 l 799 149 l 799 228 b 728 221 775 224 751 221 b 706 222 719 221 713 222 l 706 149 l 560 149 z m 918 158 b 1196 586 1082 232 1196 396 l 1196 1186 l 1060 1186 l 1060 426 l 1058 425 b 808 231 1007 324 915 254 l 808 158 l 918 158 z m 1040 1183 l 989 1115 l 989 357 b 1040 432 1008 379 1026 404 l 1040 1183 z m 536 158 l 696 158 l 696 222 b 396 425 568 233 454 308 l 394 426 l 394 1186 l 258 1186 l 258 586 b 536 158 258 396 372 232 z m 1249 567 l 1249 482 l 1303 482 b 1314 596 1310 519 1314 557 l 1314 1186 l 1304 1186 l 1304 567 l 1249 567 z m 121 596 l 121 1183 l 69 1115 l 69 1115 l 69 614 l 69 515 b 667 -81 69 186 336 -81 b 714 -79 682 -81 699 -81 b 749 -75 726 -78 738 -76 b 760 -74 753 -75 756 -74 b 838 -56 786 -69 813 -64 b 838 -56 838 -56 838 -56 b 838 -56 838 -56 838 -56 b 1138 150 958 -19 1063 54 b 728 -10 1029 51 886 -10 b 121 596 393 -10 121 263 z m 211 701 l 211 786 l 154 786 l 154 1186 l 140 1186 l 140 596 b 154 468 140 553 146 510 l 154 701 l 211 701 z m 1294 444 l 1294 472 l 1239 472 l 1239 576 l 1294 576 l 1294 1186 l 1215 1186 l 1215 586 b 728 99 1215 317 996 99 b 239 586 458 99 239 317 l 239 1186 l 164 1186 l 164 796 l 221 796 l 221 692 l 164 692 l 164 431 b 482 64 213 267 331 133 l 972 64 b 1294 444 1129 136 1249 275 z m 504 53 b 728 10 574 25 649 10 b 950 53 806 10 881 25 l 504 53 z "}}}
